<svg width="11" height="7" viewBox="0 0 11 7" fill="none" xmlns="http://www.w3.org/2000/svg">
<path d="M0.00141811 0.89199C0.00106049 0.683941 0.0648565 0.482317 0.181732 0.322119C0.247546 0.231956 0.328376 0.157426 0.419589 0.102797C0.510802 0.048168 0.610607 0.0145133 0.71329 0.00376063C0.815972 -0.00699199 0.919514 0.00536887 1.01798 0.040135C1.11645 0.0749011 1.20792 0.131389 1.28714 0.206364L5.48925 4.19546L9.6992 0.348832C9.77939 0.274869 9.87166 0.219634 9.97071 0.186304C10.0698 0.152974 10.1736 0.142205 10.2763 0.154617C10.3791 0.167029 10.4786 0.202376 10.5693 0.258627C10.6599 0.314879 10.7399 0.390925 10.8046 0.482395C10.876 0.574524 10.9298 0.682413 10.9627 0.799292C10.9956 0.91617 11.0069 1.03952 10.9959 1.16159C10.9849 1.28366 10.9517 1.40182 10.8986 1.50865C10.8454 1.61549 10.7734 1.70869 10.687 1.78241L5.98315 6.08315C5.84287 6.21412 5.66692 6.28571 5.48533 6.28571C5.30374 6.28571 5.12778 6.21412 4.9875 6.08315L0.28365 1.63104C0.188775 1.54172 0.113777 1.42825 0.0647402 1.29984C0.0157032 1.17143 -0.00599098 1.0317 0.00141811 0.89199Z" fill="#F55951"/>
</svg>
