<svg width="258" height="168" viewBox="0 0 258 168" fill="none" xmlns="http://www.w3.org/2000/svg">
<g clip-path="url(#clip0)">
<path d="M16.2295 35.214C13.0196 35.214 9.88178 34.1813 7.21286 32.2466C4.54394 30.312 2.46377 27.5621 1.2354 24.3449C0.007032 21.1276 -0.314365 17.5874 0.311852 14.172C0.938069 10.7566 2.48378 7.61933 4.75351 5.15694C7.02324 2.69456 9.91506 1.01766 13.0633 0.338291C16.2115 -0.341079 19.4747 0.00759834 22.4402 1.34023C25.4058 2.67286 27.9405 4.92959 29.7238 7.82505C31.5071 10.7205 32.4589 14.1246 32.4589 17.607C32.4541 22.275 30.7426 26.7503 27.7001 30.0512C24.6575 33.352 20.5323 35.2087 16.2295 35.214ZM16.2295 0.733603C13.1533 0.733603 10.1463 1.72321 7.58856 3.57728C5.03084 5.43135 3.03734 8.06661 1.86016 11.1498C0.682968 14.233 0.374964 17.6257 0.975088 20.8988C1.57521 24.1719 3.05651 27.1785 5.23167 29.5382C7.40683 31.898 10.1782 33.505 13.1952 34.1561C16.2122 34.8072 19.3395 34.473 22.1814 33.1959C25.0234 31.9188 27.4525 29.7561 29.1615 26.9813C30.8705 24.2065 31.7827 20.9442 31.7827 17.607C31.778 13.1334 30.1379 8.84457 27.2221 5.6813C24.3063 2.51803 20.353 0.738674 16.2295 0.733603Z" fill="#F2F2F2"/>
<path d="M126.454 24.9432C124.85 24.9432 123.281 24.4269 121.946 23.4596C120.612 22.4922 119.572 21.1173 118.957 19.5087C118.343 17.9001 118.183 16.13 118.496 14.4223C118.809 12.7146 119.582 11.1459 120.716 9.91473C121.851 8.68354 123.297 7.84509 124.871 7.5054C126.445 7.16572 128.077 7.34006 129.56 8.00637C131.043 8.67269 132.31 9.80106 133.202 11.2488C134.093 12.6965 134.569 14.3986 134.569 16.1397C134.567 18.4738 133.711 20.7114 132.19 22.3618C130.668 24.0122 128.606 24.9406 126.454 24.9432ZM126.454 8.06987C124.983 8.06987 123.545 8.54316 122.322 9.42989C121.099 10.3166 120.145 11.577 119.582 13.0515C119.019 14.5261 118.872 16.1487 119.159 17.7141C119.446 19.2795 120.154 20.7174 121.195 21.846C122.235 22.9746 123.56 23.7432 125.003 24.0546C126.446 24.3659 127.942 24.2061 129.301 23.5953C130.66 22.9845 131.822 21.9502 132.639 20.6231C133.457 19.296 133.893 17.7358 133.893 16.1397C133.891 14.0002 133.106 11.949 131.712 10.4362C130.317 8.92328 128.427 8.07229 126.454 8.06987Z" fill="#F2F2F2"/>
<path d="M183.596 67.8603C181.79 67.8603 180.025 67.2794 178.524 66.1911C177.023 65.1029 175.853 63.5561 175.162 61.7464C174.471 59.9367 174.29 57.9453 174.642 56.0242C174.994 54.103 175.864 52.3383 177.141 50.9532C178.417 49.5681 180.044 48.6248 181.815 48.2427C183.586 47.8606 185.421 48.0567 187.089 48.8063C188.757 49.5559 190.183 50.8253 191.186 52.454C192.189 54.0827 192.725 55.9975 192.725 57.9563C192.722 60.5821 191.759 63.0995 190.048 64.9562C188.337 66.8129 186.016 67.8573 183.596 67.8603ZM183.596 48.786C181.924 48.786 180.29 49.3239 178.9 50.3315C177.51 51.3391 176.426 52.7714 175.786 54.447C175.147 56.1227 174.979 57.9665 175.305 59.7454C175.631 61.5242 176.437 63.1582 177.619 64.4407C178.801 65.7232 180.307 66.5966 181.947 66.9504C183.586 67.3043 185.286 67.1227 186.831 66.4286C188.375 65.7345 189.695 64.5591 190.624 63.0511C191.553 61.543 192.049 59.77 192.049 57.9563C192.046 55.5251 191.155 53.1941 189.57 51.475C187.985 49.7558 185.837 48.7888 183.596 48.786Z" fill="#F2F2F2"/>
<path d="M257.662 168H181.586C181.497 168 181.411 167.961 181.347 167.893C181.284 167.824 181.248 167.73 181.248 167.633C181.248 167.536 181.284 167.443 181.347 167.374C181.411 167.305 181.497 167.266 181.586 167.266H257.662C257.752 167.266 257.838 167.305 257.901 167.374C257.964 167.443 258 167.536 258 167.633C258 167.73 257.964 167.824 257.901 167.893C257.838 167.961 257.752 168 257.662 168Z" fill="#CCCCCC"/>
<path d="M216.703 56.2128C221.289 56.2128 225.007 52.1792 225.007 47.2035C225.007 42.2278 221.289 38.1942 216.703 38.1942C212.116 38.1942 208.398 42.2278 208.398 47.2035C208.398 52.1792 212.116 56.2128 216.703 56.2128Z" fill="#FFB8B8"/>
<path d="M217.564 154.187L213.639 155.633L206.629 139.897L212.422 137.763L217.564 154.187Z" fill="#FFB8B8"/>
<path d="M210.455 155.45L218.025 152.66L219.643 157.831L207.308 162.376C207.095 161.697 207.008 160.98 207.051 160.264C207.094 159.548 207.267 158.849 207.559 158.206C207.851 157.563 208.257 156.988 208.754 156.515C209.251 156.042 209.829 155.68 210.455 155.45Z" fill="#2F2E41"/>
<path d="M226.433 163.076L222.293 163.301L219.52 146.085L225.63 145.751L226.433 163.076Z" fill="#FFB8B8"/>
<path d="M219.276 162.179L227.261 161.744L227.513 167.198L214.502 167.907C214.469 167.191 214.566 166.475 214.788 165.799C215.01 165.124 215.352 164.502 215.796 163.97C216.239 163.438 216.774 163.006 217.372 162.699C217.969 162.392 218.616 162.215 219.276 162.179Z" fill="#2F2E41"/>
<path d="M201.796 105.873C202.167 105.514 202.462 105.072 202.658 104.577C202.855 104.081 202.949 103.545 202.934 103.006C202.919 102.467 202.795 101.938 202.571 101.457C202.347 100.975 202.029 100.553 201.638 100.22L205.585 87.8308L199.502 89.5173L196.686 101.023C196.213 101.772 196.01 102.684 196.115 103.584C196.22 104.485 196.626 105.313 197.256 105.91C197.885 106.508 198.696 106.835 199.532 106.828C200.369 106.821 201.175 106.481 201.796 105.873Z" fill="#FFB8B8"/>
<path d="M226.046 157.885C225.992 157.885 225.939 157.882 225.886 157.875L220.266 157.23C219.921 157.192 219.598 157.027 219.352 156.761C219.106 156.496 218.951 156.147 218.914 155.772L214.571 113.769L211.429 125.263L217.288 147.852C217.347 148.082 217.36 148.324 217.325 148.56C217.291 148.796 217.209 149.021 217.086 149.219C216.964 149.417 216.803 149.585 216.615 149.709C216.426 149.833 216.216 149.912 215.997 149.939L210.3 150.649C209.938 150.693 209.572 150.594 209.271 150.371C208.969 150.148 208.751 149.816 208.656 149.433L202.432 124.012C202.38 123.803 202.368 123.585 202.394 123.371L205.192 100.556L226.058 102.371L227.567 156.184C227.573 156.404 227.538 156.624 227.465 156.831C227.391 157.037 227.28 157.225 227.138 157.383C226.996 157.542 226.827 157.668 226.639 157.754C226.451 157.84 226.25 157.885 226.046 157.885V157.885Z" fill="#2F2E41"/>
<path d="M218.833 106.272C211.842 106.272 203.927 103.342 203.448 103.162L203.309 103.11L211.196 59.2083L211.341 59.2147C214.466 59.3523 222.995 59.4229 223.081 59.4236L223.234 59.4248L226.522 98.167L227.109 103.834L227.037 103.897C225.026 105.661 222.026 106.272 218.833 106.272Z" fill="#2F80ED"/>
<path d="M206.203 102.478L201.271 100.323L203.785 67.3303C203.845 66.5169 204.073 65.7287 204.452 65.0237C204.831 64.3188 205.351 63.7151 205.974 63.2574L208.57 61.3409C208.496 61.07 208.483 60.784 208.531 60.5064C208.579 60.2289 208.688 59.9677 208.847 59.7443C209.006 59.5209 209.212 59.3417 209.448 59.2214C209.683 59.1011 209.942 59.0431 210.202 59.0521L210.945 59.0781C211.086 58.9747 211.253 58.9201 211.424 58.9214C211.594 58.9228 211.76 58.9799 211.9 59.0855C212.04 59.191 212.147 59.34 212.208 59.5128C212.268 59.6857 212.279 59.8743 212.239 60.054L212.076 63.5495L206.203 102.478Z" fill="#2F2E41"/>
<path d="M203.714 96.5637L197.274 96.2694L199.36 81.7098L201.089 68.0098C201.123 67.5179 201.259 67.0406 201.487 66.6137C201.715 66.1869 202.029 65.8214 202.405 65.5446C202.782 65.2679 203.211 65.087 203.661 65.0155C204.111 64.9441 204.57 64.9839 205.004 65.1319C205.679 65.3619 206.259 65.8425 206.64 66.4895C207.022 67.1366 207.182 67.9087 207.091 68.6706L205.34 83.5145L203.714 96.5637Z" fill="#2F2E41"/>
<path d="M213.913 102.983L213.869 102.836C213.839 102.735 210.936 92.6343 215.793 80.5807L218.229 67.4394L220.31 59.188C220.349 59.0405 220.419 58.9049 220.515 58.792C220.611 58.6791 220.729 58.592 220.862 58.5376C221.017 58.4793 221.185 58.4718 221.344 58.5162C221.503 58.5606 221.647 58.6549 221.757 58.7872C223.208 58.3253 224.767 58.4944 226.105 59.2589L229.028 60.9293C229.678 61.3008 230.196 61.8956 230.501 62.6207C230.805 63.3458 230.88 64.1601 230.712 64.936L226.717 83.4317L228.659 100.708L213.913 102.983Z" fill="#2F2E41"/>
<path d="M218.166 95.8618C218.66 95.92 219.16 95.86 219.631 95.686C220.101 95.5119 220.531 95.228 220.889 94.8544C221.247 94.4808 221.526 94.0264 221.705 93.5233C221.884 93.0203 221.959 92.4808 221.925 91.9428L230.972 84.6724L227.81 83.0458L218.055 88.4974C217.225 88.6192 216.466 89.0668 215.921 89.7554C215.375 90.4439 215.081 91.3256 215.095 92.2334C215.109 93.1412 215.429 94.0119 215.995 94.6807C216.561 95.3494 217.334 95.7697 218.166 95.8619V95.8618Z" fill="#FFB8B8"/>
<path d="M223.838 92.6074L220.782 86.4196L228.318 81.0392L224.641 66.7299C224.493 66.157 224.457 65.5573 224.532 64.9683C224.608 64.3792 224.795 63.8135 225.082 63.3064C225.368 62.7993 225.748 62.3618 226.198 62.0211C226.647 61.6804 227.156 61.4438 227.694 61.3262C228.643 61.1209 229.63 61.2964 230.469 61.8202C231.309 62.3439 231.944 63.1804 232.258 64.1742L237.22 79.9968C237.322 80.3228 237.328 80.6754 237.236 81.0051C237.145 81.3348 236.96 81.6252 236.709 81.8355L223.838 92.6074Z" fill="#2F2E41"/>
<path d="M217.29 49.1144C216.295 49.255 215.544 48.15 215.196 47.1285C214.847 46.1071 214.582 44.9179 213.717 44.3661C212.534 43.6123 211.021 44.519 209.669 44.2703C208.142 43.9894 207.149 42.2336 207.071 40.5554C206.993 38.8772 207.609 37.2631 208.213 35.7158L208.424 37.6388C208.396 36.987 208.522 36.3384 208.791 35.7548C209.06 35.1712 209.462 34.6722 209.96 34.3056L209.688 37.1272C209.746 36.738 209.874 36.3649 210.065 36.0295C210.256 35.694 210.506 35.4029 210.802 35.1726C211.097 34.9424 211.431 34.7776 211.785 34.6878C212.138 34.598 212.505 34.5849 212.864 34.6492L212.821 36.3304C214.585 36.1029 216.364 35.8751 218.133 36.0484C219.902 36.2217 221.683 36.8289 223.024 38.0929C225.03 39.9835 225.762 43.0965 225.516 45.9666C225.27 48.8367 224.178 51.5329 223.04 54.1374C222.754 54.7927 222.358 55.5322 221.694 55.6157C221.097 55.6907 220.551 55.1496 220.365 54.5298C220.223 53.8939 220.228 53.2294 220.382 52.5963C220.549 51.629 220.761 50.6402 220.603 49.6708C220.445 48.7014 219.803 47.7435 218.902 47.6247C218.001 47.5059 217.079 48.6228 217.513 49.4879L217.29 49.1144Z" fill="#2F2E41"/>
<path d="M108.639 148.037L105.407 146.56L103.189 128.98H73.6583L71.2546 146.489L68.3625 148.057C68.2242 148.132 68.1132 148.256 68.0476 148.408C67.9821 148.56 67.9657 148.732 68.0013 148.895C68.0368 149.058 68.1222 149.204 68.2435 149.308C68.3648 149.412 68.515 149.469 68.6697 149.469H108.373C108.531 149.469 108.685 149.409 108.808 149.3C108.931 149.191 109.015 149.04 109.046 148.871C109.077 148.703 109.054 148.527 108.98 148.375C108.906 148.223 108.785 148.104 108.639 148.037Z" fill="#E6E6E6"/>
<path d="M161.118 131.319H16.0539C15.2928 131.317 14.5635 130.988 14.0259 130.403C13.4883 129.819 13.1864 129.027 13.1864 128.201V106.009H163.985V128.201C163.985 129.027 163.683 129.819 163.146 130.403C162.608 130.988 161.879 131.317 161.118 131.319Z" fill="#CCCCCC"/>
<path d="M164.137 116.497H13.0541V21.5418C13.0551 20.5453 13.4205 19.5899 14.07 18.8853C14.7196 18.1807 15.6002 17.7843 16.5187 17.7832H160.672C161.591 17.7844 162.471 18.1807 163.121 18.8853C163.77 19.5899 164.136 20.5453 164.137 21.5418V116.497Z" fill="#3F3D56"/>
<path d="M155.113 109.605H22.0776C21.3695 109.605 20.6906 109.299 20.1898 108.756C19.6891 108.213 19.4074 107.476 19.4066 106.708V27.5727C19.4074 26.8044 19.6891 26.0679 20.1898 25.5246C20.6905 24.9814 21.3694 24.6758 22.0776 24.6749H155.113C155.821 24.6758 156.5 24.9814 157.001 25.5246C157.502 26.0679 157.783 26.8044 157.784 27.5727V106.708C157.783 107.476 157.502 108.213 157.001 108.756C156.5 109.299 155.821 109.605 155.113 109.605Z" fill="white"/>
<path d="M153.861 149.652H25.0397C24.95 149.652 24.864 149.614 24.8006 149.545C24.7372 149.476 24.7015 149.383 24.7015 149.285C24.7015 149.188 24.7372 149.095 24.8006 149.026C24.864 148.957 24.95 148.919 25.0397 148.919H153.861C153.951 148.919 154.037 148.957 154.1 149.026C154.163 149.095 154.199 149.188 154.199 149.285C154.199 149.383 154.163 149.476 154.1 149.545C154.037 149.614 153.951 149.652 153.861 149.652Z" fill="#CCCCCC"/>
<path d="M142.615 99.7729H34.5757C34.486 99.7729 34.4 99.7343 34.3366 99.6655C34.2732 99.5967 34.2375 99.5034 34.2375 99.4061V43.2276C34.2375 43.1303 34.2732 43.037 34.3366 42.9682C34.4 42.8994 34.486 42.8608 34.5757 42.8608C34.6653 42.8608 34.7513 42.8994 34.8147 42.9682C34.8781 43.037 34.9138 43.1303 34.9138 43.2276V99.0393H142.615C142.705 99.0393 142.791 99.0779 142.854 99.1467C142.917 99.2155 142.953 99.3088 142.953 99.4061C142.953 99.5034 142.917 99.5967 142.854 99.6655C142.791 99.7343 142.705 99.7729 142.615 99.7729Z" fill="#3F3D56"/>
<path d="M57.659 95.738H47.8324C47.5663 95.7377 47.3112 95.6229 47.1231 95.4187C46.9349 95.2146 46.8291 94.9379 46.8287 94.6492V79.9534C46.8291 79.6647 46.9349 79.388 47.1231 79.1839C47.3112 78.9798 47.5663 78.8649 47.8324 78.8646H57.659C57.9251 78.8649 58.1802 78.9798 58.3684 79.1839C58.5565 79.388 58.6624 79.6647 58.6627 79.9534V94.6492C58.6624 94.9379 58.5565 95.2146 58.3684 95.4187C58.1802 95.6229 57.9251 95.7377 57.659 95.738Z" fill="#2F80ED"/>
<path d="M75.5791 95.738H65.7525C65.4864 95.7377 65.2313 95.6229 65.0431 95.4187C64.8549 95.2146 64.7491 94.9379 64.7488 94.6492V66.0145C64.7491 65.7259 64.8549 65.4491 65.0431 65.245C65.2313 65.0409 65.4864 64.9261 65.7525 64.9258H75.5791C75.8451 64.9261 76.1003 65.0409 76.2884 65.245C76.4766 65.4491 76.5824 65.7259 76.5827 66.0145V94.6492C76.5824 94.9379 76.4766 95.2146 76.2884 95.4187C76.1003 95.6229 75.8451 95.7377 75.5791 95.738Z" fill="#2F80ED"/>
<path d="M93.4991 95.738H83.6725C83.4064 95.7377 83.1513 95.6229 82.9632 95.4187C82.775 95.2146 82.6691 94.9379 82.6688 94.6492V79.9534C82.6691 79.6647 82.775 79.388 82.9632 79.1839C83.1513 78.9798 83.4064 78.8649 83.6725 78.8646H93.4991C93.7652 78.8649 94.0203 78.9798 94.2085 79.1839C94.3966 79.388 94.5025 79.6647 94.5028 79.9534V94.6492C94.5025 94.9379 94.3966 95.2146 94.2085 95.4187C94.0203 95.6229 93.7652 95.7377 93.4991 95.738Z" fill="#2F80ED"/>
<path d="M111.419 95.738H101.592C101.332 95.7441 101.081 95.6381 100.893 95.4432C100.704 95.2484 100.595 94.9806 100.589 94.6985V60.4631C100.595 60.181 100.704 59.9132 100.893 59.7183C101.081 59.5235 101.332 59.4175 101.592 59.4236H111.419C111.679 59.4175 111.931 59.5235 112.119 59.7183C112.307 59.9132 112.416 60.181 112.423 60.4631V94.6985C112.416 94.9806 112.307 95.2484 112.119 95.4432C111.931 95.6381 111.679 95.7441 111.419 95.738Z" fill="#2F80ED"/>
<path d="M129.339 95.738H119.512C119.246 95.7377 118.991 95.6229 118.803 95.4187C118.615 95.2146 118.509 94.9379 118.509 94.6492V50.6084C118.509 50.3198 118.615 50.043 118.803 49.8389C118.991 49.6348 119.246 49.52 119.512 49.5197H129.339C129.605 49.52 129.86 49.6348 130.048 49.8389C130.237 50.043 130.342 50.3198 130.343 50.6084V94.6492C130.342 94.9379 130.237 95.2146 130.048 95.4187C129.86 95.6229 129.605 95.7377 129.339 95.738Z" fill="#2F80ED"/>
<path d="M52.7457 74.4629C53.8661 74.4629 54.7744 73.4775 54.7744 72.262C54.7744 71.0465 53.8661 70.0611 52.7457 70.0611C51.6253 70.0611 50.717 71.0465 50.717 72.262C50.717 73.4775 51.6253 74.4629 52.7457 74.4629Z" fill="#3F3D56"/>
<path d="M70.6658 60.1572C71.7862 60.1572 72.6944 59.1718 72.6944 57.9563C72.6944 56.7408 71.7862 55.7555 70.6658 55.7555C69.5454 55.7555 68.6371 56.7408 68.6371 57.9563C68.6371 59.1718 69.5454 60.1572 70.6658 60.1572Z" fill="#3F3D56"/>
<path d="M88.5858 74.4629C89.7062 74.4629 90.6145 73.4775 90.6145 72.262C90.6145 71.0465 89.7062 70.0611 88.5858 70.0611C87.4654 70.0611 86.5571 71.0465 86.5571 72.262C86.5571 73.4775 87.4654 74.4629 88.5858 74.4629Z" fill="#3F3D56"/>
<path d="M106.506 53.1878C107.626 53.1878 108.535 52.2024 108.535 50.9869C108.535 49.7714 107.626 48.786 106.506 48.786C105.385 48.786 104.477 49.7714 104.477 50.9869C104.477 52.2024 105.385 53.1878 106.506 53.1878Z" fill="#3F3D56"/>
<path d="M124.426 45.1179C125.546 45.1179 126.455 44.1325 126.455 42.917C126.455 41.7015 125.546 40.7162 124.426 40.7162C123.305 40.7162 122.397 41.7015 122.397 42.917C122.397 44.1325 123.305 45.1179 124.426 45.1179Z" fill="#3F3D56"/>
<path d="M88.6284 72.755L70.6657 58.1588L52.9486 72.5554L52.5428 71.9685L70.6657 57.2421L88.5432 71.769L106.308 50.678L106.379 50.6465L124.299 42.8136L124.552 43.494L106.704 51.2957L88.6284 72.755Z" fill="#3F3D56"/>
</g>
<defs>
<clipPath id="clip0">
<rect width="258" height="168" fill="white"/>
</clipPath>
</defs>
</svg>
