<svg width="173" height="150" viewBox="0 0 173 150" fill="none" xmlns="http://www.w3.org/2000/svg">
<g clip-path="url(#clip0)">
<path d="M10.6386 26.8741C9.2415 26.8741 7.8581 26.5265 6.56737 25.8513C5.27664 25.176 4.10385 24.1863 3.11597 22.9386C2.12808 21.6909 1.34445 20.2097 0.809813 18.5795C0.275175 16.9493 0 15.2021 0 13.4375C0 11.673 0.275175 9.9258 0.809813 8.29561C1.34445 6.66541 2.12808 5.18418 3.11597 3.93648C4.10385 2.68878 5.27664 1.69905 6.56737 1.0238C7.8581 0.348549 9.2415 0.00100703 10.6386 0.00100708H107.465C108.863 0.00100703 110.246 0.348549 111.537 1.0238C112.827 1.69905 114 2.68878 114.988 3.93648C115.976 5.18418 116.76 6.66541 117.294 8.29561C117.829 9.9258 118.104 11.673 118.104 13.4375C118.104 15.2021 117.829 16.9493 117.294 18.5795C116.76 20.2097 115.976 21.6909 114.988 22.9386C114 24.1863 112.827 25.176 111.537 25.8513C110.246 26.5265 108.863 26.8741 107.465 26.8741H10.6386Z" fill="#E6E6E6"/>
<path d="M10.6386 1.7529C8.18513 1.7529 5.83212 2.98388 4.09723 5.17505C2.36235 7.36621 1.3877 10.3381 1.3877 13.4368C1.3877 16.5356 2.36235 19.5075 4.09723 21.6986C5.83212 23.8898 8.18513 25.1208 10.6386 25.1208H107.466C109.919 25.1208 112.272 23.8898 114.007 21.6986C115.742 19.5075 116.716 16.5356 116.716 13.4368C116.716 10.3381 115.742 7.36621 114.007 5.17505C112.272 2.98388 109.919 1.7529 107.466 1.7529H10.6386Z" fill="white"/>
<path d="M40.0105 1.75259H39.7021V25.1205H40.0105V1.75259Z" fill="#E6E6E6"/>
<path d="M78.4021 1.75259H78.0938V25.1205H78.4021V1.75259Z" fill="#E6E6E6"/>
<path d="M78.0937 1.75259H40.0105V25.1205H78.0937V1.75259Z" fill="#2F80ED"/>
<path d="M59.0694 6.31213C57.9504 6.31213 56.8565 6.73125 55.926 7.51647C54.9955 8.3017 54.2703 9.41778 53.8421 10.7236C53.4138 12.0294 53.3018 13.4662 53.5201 14.8524C53.7384 16.2386 54.2773 17.512 55.0686 18.5114C55.8599 19.5108 56.8681 20.1914 57.9656 20.4671C59.0632 20.7429 60.2008 20.6013 61.2347 20.0605C62.2686 19.5196 63.1522 18.6036 63.774 17.4285C64.3957 16.2533 64.7275 14.8717 64.7275 13.4583C64.7275 11.563 64.1314 9.74535 63.0703 8.40519C62.0092 7.06503 60.5701 6.31213 59.0694 6.31213ZM59.0694 8.45598C59.4052 8.45598 59.7333 8.58171 60.0125 8.81728C60.2916 9.05285 60.5092 9.38767 60.6377 9.77941C60.7661 10.1711 60.7997 10.6022 60.7342 11.0181C60.6688 11.4339 60.5071 11.8159 60.2697 12.1157C60.0323 12.4156 59.7299 12.6198 59.4006 12.7025C59.0713 12.7852 58.73 12.7427 58.4199 12.5805C58.1097 12.4182 57.8446 12.1434 57.6581 11.7909C57.4716 11.4383 57.372 11.0238 57.372 10.5998C57.3721 10.0313 57.551 9.48607 57.8693 9.08409C58.1876 8.6821 58.6193 8.45628 59.0694 8.45628V8.45598ZM59.0694 18.7768C58.3989 18.7729 57.7392 18.5625 57.1476 18.1637C56.556 17.765 56.0504 17.19 55.6746 16.4885C55.7017 15.0593 57.9378 14.2726 59.0694 14.2726C60.2011 14.2726 62.4372 15.0593 62.4643 16.4885C62.088 17.1894 61.5823 17.764 60.9908 18.1627C60.3994 18.5614 59.7399 18.7722 59.0694 18.7768Z" fill="white"/>
<path d="M20.6769 6.31213C19.5578 6.31213 18.4639 6.73125 17.5334 7.51647C16.603 8.3017 15.8777 9.41778 15.4495 10.7236C15.0213 12.0294 14.9092 13.4662 15.1275 14.8524C15.3458 16.2386 15.8847 17.512 16.676 18.5114C17.4673 19.5108 18.4755 20.1914 19.573 20.4671C20.6706 20.7429 21.8082 20.6013 22.8421 20.0605C23.876 19.5196 24.7597 18.6036 25.3814 17.4285C26.0031 16.2533 26.3349 14.8717 26.3349 13.4583C26.3349 11.563 25.7388 9.74535 24.6777 8.40519C23.6166 7.06503 22.1775 6.31213 20.6769 6.31213ZM20.6769 8.45598C21.0126 8.45598 21.3408 8.58171 21.6199 8.81728C21.899 9.05285 22.1166 9.38767 22.2451 9.77941C22.3735 10.1711 22.4072 10.6022 22.3417 11.0181C22.2762 11.4339 22.1145 11.8159 21.8771 12.1157C21.6397 12.4156 21.3373 12.6198 21.008 12.7025C20.6788 12.7852 20.3375 12.7427 20.0273 12.5805C19.7171 12.4182 19.452 12.1434 19.2655 11.7909C19.079 11.4383 18.9794 11.0238 18.9794 10.5998C18.9794 10.0312 19.1583 9.48594 19.4766 9.08389C19.7949 8.68184 20.2267 8.45598 20.6769 8.45598ZM20.6769 18.7768C20.0063 18.7729 19.3466 18.5625 18.755 18.1637C18.1635 17.765 17.6578 17.19 17.282 16.4885C17.3091 15.0593 19.5453 14.2726 20.6769 14.2726C21.8085 14.2726 24.0446 15.0593 24.0717 16.4885C23.6955 17.1894 23.1897 17.764 22.5983 18.1627C22.0068 18.5614 21.3473 18.7722 20.6769 18.7768Z" fill="#E6E6E6"/>
<path d="M97.4255 6.31213C96.3065 6.31213 95.2125 6.73125 94.2821 7.51647C93.3516 8.3017 92.6264 9.41778 92.1982 10.7236C91.7699 12.0294 91.6579 13.4662 91.8762 14.8524C92.0945 16.2386 92.6334 17.512 93.4247 18.5114C94.216 19.5108 95.2241 20.1914 96.3217 20.4671C97.4193 20.7429 98.5569 20.6013 99.5908 20.0605C100.625 19.5196 101.508 18.6036 102.13 17.4285C102.752 16.2533 103.084 14.8717 103.084 13.4583C103.084 11.563 102.487 9.74535 101.426 8.40519C100.365 7.06503 98.9262 6.31213 97.4255 6.31213ZM97.4255 8.45598C97.7613 8.45598 98.0894 8.58171 98.3686 8.81728C98.6477 9.05285 98.8653 9.38767 98.9937 9.77941C99.1222 10.1711 99.1558 10.6022 99.0903 11.0181C99.0248 11.4339 98.8632 11.8159 98.6258 12.1157C98.3884 12.4156 98.086 12.6198 97.7567 12.7025C97.4274 12.7852 97.0861 12.7427 96.776 12.5805C96.4658 12.4182 96.2007 12.1434 96.0142 11.7909C95.8277 11.4383 95.7281 11.0238 95.7281 10.5998C95.7281 10.0312 95.9069 9.48594 96.2253 9.08389C96.5436 8.68184 96.9754 8.45598 97.4255 8.45598ZM97.4255 18.7768C96.755 18.7729 96.0953 18.5625 95.5037 18.1637C94.9121 17.765 94.4065 17.19 94.0307 16.4885C94.0578 15.0593 96.2939 14.2726 97.4255 14.2726C98.5572 14.2726 100.793 15.0593 100.82 16.4885C100.444 17.1894 99.9384 17.764 99.3469 18.1627C98.7554 18.5614 98.096 18.7722 97.4255 18.7768Z" fill="#E6E6E6"/>
<path d="M64.256 36.6666H53.8829C53.1017 36.6666 52.4684 37.4665 52.4684 38.4531V51.5544C52.4684 52.5411 53.1017 53.3409 53.8829 53.3409H64.256C65.0372 53.3409 65.6705 52.5411 65.6705 51.5544V38.4531C65.6705 37.4665 65.0372 36.6666 64.256 36.6666Z" fill="#2F80ED"/>
<path d="M141.306 150C158.81 150 173 147.6 173 144.64C173 141.68 158.81 139.281 141.306 139.281C123.801 139.281 109.611 141.68 109.611 144.64C109.611 147.6 123.801 150 141.306 150Z" fill="#E6E6E6"/>
<path d="M102.613 36.613H92.2398C91.4586 36.613 90.8253 37.4129 90.8253 38.3995V51.5008C90.8253 52.4875 91.4586 53.2874 92.2398 53.2874H102.613C103.394 53.2874 104.027 52.4875 104.027 51.5008V38.3995C104.027 37.4129 103.394 36.613 102.613 36.613Z" fill="#E6E6E6"/>
<path d="M102.33 38.9298H92.7114V51.0777H102.33V38.9298Z" fill="white"/>
<path d="M58.4502 47.5928L56.7822 44.8832L57.7521 43.9304L58.5419 45.2128L61.2101 41.6558L62.1024 42.7233L58.4502 47.5928Z" fill="white"/>
<path d="M96.8697 47.5928L95.2018 44.8832L96.1717 43.9304L96.9615 45.2128L99.6295 41.6558L100.522 42.7233L96.8697 47.5928Z" fill="#E6E6E6"/>
<path d="M25.8644 36.613H15.4913C14.7101 36.613 14.0768 37.4129 14.0768 38.3995V51.5008C14.0768 52.4875 14.7101 53.2874 15.4913 53.2874H25.8644C26.6456 53.2874 27.2789 52.4875 27.2789 51.5008V38.3995C27.2789 37.4129 26.6456 36.613 25.8644 36.613Z" fill="#E6E6E6"/>
<path d="M25.581 38.9298H15.9628V51.0777H25.581V38.9298Z" fill="white"/>
<path d="M20.1212 47.5928L18.4532 44.8832L19.4231 43.9304L20.2129 45.2128L22.8809 41.6558L23.7732 42.7233L20.1212 47.5928Z" fill="#E6E6E6"/>
<path d="M162.671 140.403H159.564L158.087 125.266H162.672L162.671 140.403Z" fill="#FFB8B8"/>
<path d="M157.343 139.281H163.336V144.045H153.571C153.571 142.782 153.969 141.57 154.676 140.676C155.384 139.783 156.343 139.281 157.343 139.281Z" fill="#2F2E41"/>
<path d="M130.927 140.403H127.82L126.342 125.266H130.928L130.927 140.403Z" fill="#FFB8B8"/>
<path d="M125.601 139.281H131.593V144.045H121.828C121.828 142.782 122.225 141.57 122.933 140.676C123.64 139.783 124.599 139.281 125.6 139.281H125.601Z" fill="#2F2E41"/>
<path d="M141.306 28.1216V26.405C141.306 23.4689 142.229 20.6531 143.873 18.5769C145.517 16.5008 147.746 15.3344 150.071 15.3344C152.396 15.3344 154.625 16.5008 156.269 18.5769C157.913 20.6531 158.836 23.4689 158.836 26.405V28.1213C158.836 30.2377 158.171 32.2674 156.986 33.7639C155.801 35.2604 154.194 36.1011 152.518 36.1011H147.625C145.949 36.1011 144.342 35.2604 143.157 33.7639C141.972 32.2674 141.307 30.2377 141.307 28.1213L141.306 28.1216Z" fill="#2F2E41"/>
<path d="M150.071 36.6934C153.758 36.6934 156.747 32.9186 156.747 28.2621C156.747 23.6056 153.758 19.8308 150.071 19.8308C146.384 19.8308 143.396 23.6056 143.396 28.2621C143.396 32.9186 146.384 36.6934 150.071 36.6934Z" fill="#FFB8B8"/>
<path d="M113.761 57.2377C114.031 56.9146 114.355 56.6705 114.709 56.5226C115.062 56.3746 115.438 56.3264 115.808 56.3813C116.178 56.4362 116.534 56.5929 116.85 56.8403C117.167 57.0878 117.437 57.42 117.642 57.8135L123.364 56.4465L124.87 60.6359L116.767 62.4225C116.221 62.8112 115.581 62.9335 114.968 62.7663C114.356 62.5991 113.813 62.1541 113.442 61.5153C113.072 60.8765 112.9 60.0884 112.958 59.3001C113.017 58.5118 113.302 57.7781 113.761 57.2377Z" fill="#FFB8B8"/>
<path d="M144.867 42.0027L144.941 42.1459L135.559 49.9534L119.724 56.3393C119.515 56.4245 119.334 56.5989 119.215 56.8329C119.095 57.0669 119.044 57.346 119.069 57.6227L119.414 61.3804C119.43 61.5467 119.472 61.7071 119.539 61.8514C119.607 61.9956 119.697 62.1206 119.805 62.2181C119.913 62.3157 120.035 62.3837 120.165 62.4179C120.295 62.4521 120.429 62.4516 120.559 62.4165L135.461 58.3822C136.182 58.1882 136.864 57.8089 137.465 57.268L148.005 47.7949C148.584 47.2742 148.978 46.4875 149.102 45.6039C149.226 44.7204 149.07 43.8107 148.668 43.0705C148.267 42.3304 147.651 41.8189 146.954 41.6461C146.257 41.4734 145.534 41.6532 144.941 42.1468L144.867 42.0027Z" fill="#CCCCCC"/>
<path d="M159.62 136.107C159.381 136.107 159.148 136.02 158.948 135.855C158.748 135.69 158.591 135.456 158.495 135.18L144.25 90.7248C144.217 90.6284 144.161 90.5471 144.09 90.4919C144.019 90.4368 143.937 90.4104 143.854 90.4163C143.771 90.4222 143.691 90.4601 143.625 90.525C143.56 90.5898 143.511 90.6785 143.487 90.779L131.866 134.058C131.817 134.259 131.735 134.446 131.627 134.606C131.519 134.767 131.386 134.897 131.236 134.99C131.086 135.083 130.923 135.136 130.756 135.147C130.59 135.157 130.423 135.124 130.267 135.05L126.37 133.204C126.158 133.105 125.973 132.934 125.834 132.709C125.695 132.485 125.608 132.216 125.583 131.932C123.829 112.643 139.118 63.9547 139.272 63.4646L139.315 63.3292L153.252 67.2229L153.281 67.2628C158.841 74.9241 163.412 123.245 164.271 132.853C164.303 133.2 164.241 133.551 164.094 133.847C163.947 134.143 163.725 134.367 163.464 134.483L160.024 136.019C159.894 136.077 159.757 136.107 159.62 136.107V136.107Z" fill="#2F2E41"/>
<path d="M147.612 68.7915C144.235 68.7915 140.471 67.9411 139.312 64.4318L139.285 64.3511L139.321 64.2763C140.236 62.3808 141.445 59.1478 140.795 58.5406C139.515 57.3455 138.894 55.3791 138.949 52.6963C139.069 46.8725 142.211 41.7016 146.767 39.8297C148.039 39.3155 149.333 38.8946 150.644 38.569C151.599 38.3255 152.585 38.3523 153.531 38.6474C154.477 38.9425 155.36 39.4986 156.116 40.2757C156.881 41.0579 157.499 42.0444 157.927 43.1644C158.354 44.2844 158.58 45.5101 158.588 46.7534C158.635 52.9765 157.877 61.6456 153.991 67.5963C153.808 67.8724 153.555 68.0585 153.275 68.1218C151.406 68.5491 149.511 68.7732 147.612 68.7915Z" fill="#CCCCCC"/>
<path d="M146.356 68.5572C146.539 67.7246 146.976 67.0173 147.57 66.589C148.165 66.1606 148.869 66.0458 149.53 66.2695C149.665 66.3171 149.796 66.3787 149.923 66.4535L154.268 61.4593L157.29 64.0304L151.076 70.9753C150.796 71.6141 150.354 72.1161 149.822 72.4014C149.289 72.6867 148.696 72.7389 148.138 72.5498C147.812 72.4373 147.507 72.2444 147.241 71.9823C146.975 71.7202 146.753 71.3941 146.587 71.0229C146.422 70.6516 146.316 70.2425 146.276 69.8193C146.236 69.3961 146.263 68.9671 146.356 68.5572Z" fill="#FFB8B8"/>
<path d="M153.58 68.6203C153.298 68.6204 153.024 68.4968 152.806 68.2707L151.093 66.5023C150.95 66.3549 150.835 66.1686 150.757 65.9573C150.68 65.746 150.641 65.5152 150.644 65.2823C150.647 65.0493 150.691 64.8202 150.774 64.6121C150.857 64.4039 150.976 64.2222 151.122 64.0804L158.309 57.1189C158.394 57.0359 158.45 56.9139 158.465 56.7793C158.479 56.6447 158.451 56.5083 158.386 56.3998L153.95 48.9931C153.435 48.1354 153.177 47.0751 153.221 45.9999C153.265 44.9246 153.609 43.9038 154.192 43.1181C154.805 42.2808 155.646 41.7656 156.547 41.6746C157.447 41.5837 158.342 41.9236 159.053 42.6271L159.081 42.6646L163.713 51.0413C164.214 51.5373 164.617 52.1729 164.892 52.8983C165.166 53.6237 165.304 54.4194 165.294 55.2232C165.285 56.0269 165.128 56.8171 164.837 57.5319C164.546 58.2467 164.128 58.8667 163.615 59.3437L154.308 68.3163C154.097 68.5129 153.842 68.619 153.58 68.6191L153.58 68.6203Z" fill="#CCCCCC"/>
<path d="M144.158 25.8902V21.707L150.071 18.4448L155.709 21.7058V25.889C155.709 25.9792 155.695 26.0685 155.668 26.1518C155.641 26.2351 155.601 26.3108 155.55 26.3745C155.5 26.4383 155.44 26.4889 155.374 26.5234C155.308 26.5579 155.237 26.5756 155.166 26.5756H144.702C144.63 26.5756 144.56 26.5579 144.494 26.5234C144.428 26.4889 144.368 26.4383 144.317 26.3745C144.267 26.3108 144.227 26.2351 144.199 26.1518C144.172 26.0685 144.158 25.9792 144.158 25.889V25.8902Z" fill="#2F2E41"/>
<path d="M155.13 19.573C157.177 19.573 158.836 17.4771 158.836 14.8917C158.836 12.3063 157.177 10.2104 155.13 10.2104C153.083 10.2104 151.423 12.3063 151.423 14.8917C151.423 17.4771 153.083 19.573 155.13 19.573Z" fill="#2F2E41"/>
<path d="M151.708 12.3804C151.708 11.6878 151.83 11.0038 152.064 10.3777C152.298 9.75161 152.64 9.19905 153.064 8.75988C153.488 8.32072 153.984 8.00591 154.516 7.83817C155.048 7.67043 155.603 7.65394 156.141 7.7899C155.666 7.50749 155.149 7.35558 154.625 7.34422C154.1 7.33287 153.58 7.46233 153.098 7.72403C152.616 7.98574 152.184 8.37373 151.829 8.86232C151.475 9.35091 151.207 9.92897 151.043 10.5582C150.879 11.1875 150.822 11.8536 150.877 12.5126C150.932 13.1715 151.097 13.8082 151.361 14.3805C151.626 14.9528 151.983 15.4477 152.41 15.8324C152.837 16.2171 153.324 16.4829 153.839 16.6121C153.202 16.2347 152.664 15.6364 152.287 14.887C151.91 14.1377 151.71 13.2683 151.709 12.3804H151.708Z" fill="#2F2E41"/>
</g>
<defs>
<clipPath id="clip0">
<rect width="173" height="150" fill="white"/>
</clipPath>
</defs>
</svg>
