<svg width="144" height="154" viewBox="0 0 144 154" fill="none" xmlns="http://www.w3.org/2000/svg">
<g clip-path="url(#clip0)">
<path d="M68.6175 0V32.7664H27.0065L25.5068 0.230936L68.6175 0Z" fill="#E0E0E0"/>
<path d="M25.5063 0.230965V32.6982H67.1173V0.230965H25.5063Z" fill="white"/>
<path d="M67.2852 32.8883H25.3395V0.04245H67.2852V32.8883ZM25.6742 32.5097H66.9505V0.421033H25.6742V32.5097Z" fill="#E0E0E0"/>
<path d="M62.609 4.26282H30.0124V28.6625H62.609V4.26282Z" fill="white"/>
<path d="M62.6089 4.26283C62.6089 4.26283 62.552 4.26661 62.4483 4.26661C62.3412 4.26661 62.1872 4.2704 61.9863 4.2704C61.5746 4.27418 60.9754 4.27797 60.1988 4.28176C58.6356 4.28933 56.3594 4.2969 53.484 4.30447C47.7366 4.31583 39.5959 4.33097 30.0157 4.3499L30.0961 4.25904C30.0994 11.7133 30.0994 19.974 30.1028 28.6549V28.6587L30.0157 28.5603C42.3139 28.5679 53.6514 28.5754 62.6123 28.5792L62.542 28.6587C62.5587 21.2309 62.5688 15.1395 62.5788 10.9032C62.5855 8.78311 62.5922 7.1287 62.5956 5.99674C62.5989 5.43643 62.6023 5.00485 62.6023 4.70955C62.6056 4.41805 62.6089 4.26283 62.6089 4.26283C62.6089 4.26283 62.6123 4.40669 62.6156 4.69063C62.619 4.98213 62.619 5.40993 62.6223 5.96645C62.6257 7.09463 62.6324 8.74525 62.6391 10.8577C62.6491 15.1092 62.6592 21.2158 62.6759 28.6625V28.742H62.6056C53.6447 28.7458 42.3072 28.7534 30.009 28.7609H29.922V28.6625V28.6587C29.9253 19.9778 29.9253 11.7171 29.9287 4.26283V4.17197H30.009C39.6126 4.1909 47.7701 4.20604 53.5309 4.2174C56.3996 4.22875 58.6691 4.23633 60.229 4.24011C60.9989 4.2439 61.5947 4.24768 62.0031 4.25147C62.2006 4.25525 62.3512 4.25525 62.4583 4.25525C62.5621 4.25904 62.6089 4.26283 62.6089 4.26283Z" fill="#E0E0E0"/>
<path d="M25.5068 0.1363C25.5202 0.113585 25.7913 0.321805 26.2165 0.670102C26.6416 1.02218 27.2173 1.51434 27.8433 2.08222C28.4692 2.65009 29.0215 3.18389 29.4098 3.5814C29.7981 3.97892 30.0291 4.24014 30.0124 4.26285C29.9956 4.28557 29.7379 4.05842 29.3295 3.68741C28.8709 3.27097 28.332 2.77881 27.7328 2.23365C27.137 1.68849 26.5947 1.19633 26.1395 0.779891C25.7344 0.405094 25.4934 0.159015 25.5068 0.1363Z" fill="#E0E0E0"/>
<path d="M67.1178 0.230917C67.148 0.272562 66.1639 1.21145 64.9186 2.32448C63.6734 3.43752 62.6424 4.30826 62.6123 4.26283C62.5822 4.22118 63.5663 3.2823 64.8115 2.16926C66.0534 1.05623 67.0877 0.185488 67.1178 0.230917Z" fill="#E0E0E0"/>
<path d="M67.0846 32.7022C65.5381 31.2863 63.9917 29.8666 62.4452 28.4507L67.0846 32.7022Z" fill="white"/>
<path d="M62.445 28.4505C62.4751 28.4089 63.5396 29.325 64.8183 30.4987C66.1003 31.6723 67.1145 32.6604 67.0844 32.702C67.0543 32.7437 65.9898 31.8275 64.7111 30.6539C63.4291 29.4765 62.4149 28.4922 62.445 28.4505Z" fill="#E0E0E0"/>
<path d="M25.5068 32.6982C25.4767 32.6566 26.4508 31.729 27.6826 30.6273C28.9145 29.5257 29.9387 28.6663 29.9655 28.7079C29.9956 28.7496 29.0216 29.6771 27.7897 30.7788C26.5613 31.8805 25.537 32.7398 25.5068 32.6982Z" fill="#E0E0E0"/>
<path d="M42.8028 12.1854V20.3552H51.3185V12.1854H42.8028Z" fill="#E0E0E0"/>
<path d="M31.0099 39.5771V61.3835L2.60089 61.0806L2.77495 39.8118L31.0099 39.5771Z" fill="#E0E0E0"/>
<path d="M2.77289 39.8116L2.77289 61.0766H30.0271V39.8116H2.77289Z" fill="white"/>
<path d="M30.1967 61.267H2.60779V39.6234H30.1967V61.267ZM2.94252 60.8884H29.862V40.002H2.94252V60.8884Z" fill="#E0E0E0"/>
<path d="M27.0768 42.4543H5.72736V58.4343H27.0768V42.4543Z" fill="white"/>
<path d="M27.0768 42.4543C27.0768 42.4543 27.04 42.4581 26.9697 42.4581C26.896 42.4581 26.7956 42.4619 26.6651 42.4619C26.3906 42.4657 25.9989 42.4695 25.4901 42.4733C24.4625 42.4808 22.9696 42.4884 21.0884 42.496C17.3226 42.5073 11.9969 42.5225 5.72734 42.5414L5.80768 42.4505C5.81103 47.3343 5.81103 52.7442 5.81437 58.4305L5.72734 58.3321C13.7811 58.3397 21.2055 58.3472 27.0768 58.351L27.0065 58.4305C27.0232 53.5733 27.0333 49.5868 27.0433 46.808C27.05 45.4224 27.0567 44.3359 27.0601 43.5901C27.0634 43.2266 27.0668 42.9427 27.0668 42.742C27.0701 42.5565 27.0768 42.4543 27.0768 42.4543C27.0768 42.4543 27.0801 42.5452 27.0835 42.7345C27.0868 42.9313 27.0868 43.2077 27.0902 43.5674C27.0935 44.3094 27.1002 45.3883 27.1069 46.7664C27.117 49.5565 27.127 53.5582 27.1437 58.4381V58.5176H27.0734C21.2022 58.5214 13.7777 58.529 5.72399 58.5365L5.63696 58.4381C5.64031 52.7518 5.64031 47.3418 5.64366 42.4581V42.3672H5.72399C12.017 42.3862 17.3594 42.4013 21.1386 42.4127C23.0131 42.424 24.4993 42.4316 25.5236 42.4354C26.0257 42.4392 26.4107 42.443 26.6818 42.4468C26.809 42.4505 26.9061 42.4505 26.9764 42.4505C27.0433 42.4505 27.0768 42.4505 27.0768 42.4543Z" fill="#E0E0E0"/>
<path d="M2.77495 39.7512C2.80508 39.7096 3.49129 40.2775 4.3047 41.0271C5.12145 41.7729 5.75745 42.4127 5.72398 42.4543C5.6905 42.496 5.00764 41.9243 4.19423 41.1785C3.38083 40.4327 2.74483 39.7929 2.77495 39.7512Z" fill="#E0E0E0"/>
<path d="M30.0258 39.8118C30.0559 39.8534 29.4199 40.4819 28.6032 41.2088C27.7864 41.9394 27.1035 42.4959 27.0734 42.4543C27.0433 42.4127 27.6793 41.7842 28.496 41.0573C29.3128 40.3267 29.999 39.7664 30.0258 39.8118Z" fill="#E0E0E0"/>
<path d="M30.0064 61.0816C28.9921 60.1541 27.9812 59.2265 26.967 58.2952L30.0064 61.0816Z" fill="white"/>
<path d="M26.9663 58.2942C26.9965 58.2526 27.7027 58.8394 28.5396 59.6117C29.3798 60.3802 30.0359 61.0389 30.0057 61.0806C29.9756 61.1222 29.2693 60.5354 28.4325 59.7631C27.5923 58.9946 26.9362 58.3358 26.9663 58.2942Z" fill="#E0E0E0"/>
<path d="M2.77496 61.0768C2.74484 61.0352 3.37414 60.4143 4.18085 59.6912C4.98757 58.9681 5.66708 58.4192 5.69721 58.4608C5.72733 58.5025 5.09803 59.1233 4.29132 59.8464C3.48126 60.5695 2.80509 61.1185 2.77496 61.0768Z" fill="#E0E0E0"/>
<path d="M9.68463 47.808V53.1573H23.1176V47.808H9.68463Z" fill="#E0E0E0"/>
<path d="M137.918 40.7053H116.759L117.057 6.87888L137.69 6.72745L137.918 40.7053Z" fill="#E0E0E0"/>
<path d="M135.956 6.87888H115.323V40.7053H135.956V6.87888Z" fill="white"/>
<path d="M136.124 40.8946H115.156V6.68958H136.124V40.8946ZM115.491 40.516H135.789V7.06816H115.491V40.516Z" fill="#E0E0E0"/>
<path d="M133.396 10.5397H117.887V37.0405H133.396V10.5397Z" fill="white"/>
<path d="M133.392 37.0406C133.392 37.0406 133.389 36.9951 133.389 36.9081C133.389 36.8172 133.386 36.6923 133.386 36.5295C133.382 36.1925 133.379 35.7042 133.375 35.0719C133.369 33.7961 133.362 31.9448 133.355 29.609C133.345 24.9335 133.332 18.3234 133.315 10.536L133.396 10.6268C128.659 10.6306 123.407 10.6306 117.891 10.6344H117.887L117.974 10.536C117.968 20.5306 117.961 29.7491 117.958 37.0368L117.887 36.9573C122.604 36.9762 126.47 36.9876 129.168 36.9989C130.513 37.0065 131.565 37.0141 132.288 37.0178C132.642 37.0216 132.917 37.0254 133.108 37.0254C133.295 37.033 133.392 37.0406 133.392 37.0406C133.392 37.0406 133.302 37.0443 133.121 37.0481C132.934 37.0519 132.662 37.0519 132.314 37.0557C131.595 37.0595 130.547 37.0671 129.208 37.0746C126.503 37.086 122.62 37.0973 117.884 37.1163H117.814V37.0368C117.81 29.7491 117.804 20.5343 117.797 10.536V10.4375H117.884H117.887C123.404 10.4413 128.656 10.4413 133.392 10.4451H133.473V10.536C133.456 18.3461 133.442 24.9789 133.432 29.6658C133.422 31.994 133.416 33.8377 133.412 35.106C133.409 35.7307 133.406 36.2115 133.402 36.5446C133.399 36.6998 133.399 36.821 133.399 36.9118C133.396 37.0027 133.396 37.0406 133.392 37.0406Z" fill="#E0E0E0"/>
<path d="M136.013 6.87886C136.05 6.90915 135.514 7.77611 134.795 8.79449C134.075 9.81288 133.426 10.5776 133.389 10.5398C133.352 10.5019 133.941 9.68416 134.658 8.66956C135.377 7.65496 135.976 6.841 136.013 6.87886Z" fill="#E0E0E0"/>
<path d="M135.956 40.7053C135.919 40.7393 135.314 39.9481 134.607 38.9335C133.898 37.9227 133.355 37.0747 133.392 37.0406C133.429 37.0065 134.035 37.7977 134.741 38.8123C135.451 39.8232 135.993 40.6712 135.956 40.7053Z" fill="#E0E0E0"/>
<path d="M115.32 40.6794C116.221 39.4225 117.121 38.1656 118.021 36.9088L115.32 40.6794Z" fill="white"/>
<path d="M118.021 36.9043C118.058 36.9384 117.482 37.8091 116.739 38.8502C115.993 39.8913 115.357 40.709 115.32 40.675C115.283 40.6409 115.859 39.7702 116.605 38.7253C117.348 37.688 117.984 36.8702 118.021 36.9043Z" fill="#E0E0E0"/>
<path d="M115.323 6.87885C115.36 6.84477 115.959 7.62844 116.659 8.63169C117.358 9.63493 117.897 10.4716 117.857 10.5057C117.82 10.5397 117.221 9.75608 116.522 8.75283C115.822 7.74959 115.283 6.90913 115.323 6.87885Z" fill="#E0E0E0"/>
<path d="M128.562 15.9194H123.37V32.5922H128.562V15.9194Z" fill="#E0E0E0"/>
<path fill-rule="evenodd" clip-rule="evenodd" d="M81.1299 18.1152C80.6446 18.3461 80.1558 18.5695 79.6705 18.7928C79.5299 18.8572 79.386 18.914 79.2521 18.9859C79.2219 19.0011 79.1918 19.0579 79.1985 19.0768C79.309 19.3986 79.4228 19.7166 79.5433 20.0497C79.9416 19.868 80.3366 19.6863 80.7349 19.5046C80.7483 19.5765 80.755 19.6295 80.7517 19.6863C80.7918 20.3829 80.34 20.9432 79.6939 21.106C78.8939 21.3066 78.1541 20.7388 77.9868 19.8302C77.96 19.7014 77.9533 19.5689 77.9499 19.444C77.9801 18.7171 78.4587 18.0622 79.1182 17.9372C79.3525 17.8918 79.5801 17.9183 79.7977 18.0092C79.9282 17.6609 80.0521 17.3277 80.1893 16.9643C80.1692 16.9567 80.1358 16.9491 80.1157 16.934C79.4094 16.6728 78.7366 16.7636 78.1039 17.2028C77.1901 17.8312 76.7951 19.0238 77.0093 20.1065C77.093 20.5684 77.2872 21.0151 77.5985 21.3975C78.3583 22.3023 79.55 22.5219 80.5308 21.9237C81.0094 21.6322 81.3843 21.2233 81.5818 20.6479C81.8764 19.7885 81.7425 18.9821 81.3642 18.1947C81.3006 18.066 81.2437 18.0622 81.1299 18.1152ZM83.376 17.1763C83.3325 17.1952 83.2823 17.2217 83.2287 17.2444C83.2254 17.2331 83.2187 17.2142 83.2153 17.2104C83.1986 17.1649 83.1852 17.1271 83.1752 17.093C83.0982 16.881 83.0279 16.669 82.9475 16.4532C82.9342 16.4191 82.8772 16.3737 82.8605 16.3813C82.6898 16.4494 82.5157 16.5289 82.3383 16.6122C82.4321 16.8696 82.5157 17.1119 82.6028 17.3542C82.6195 17.3997 82.6362 17.4489 82.653 17.4943C82.3852 17.6154 82.1375 17.7328 81.863 17.854C81.8898 17.9259 81.9032 17.9713 81.9199 18.0167C81.9835 18.172 82.0471 18.331 82.1141 18.4824C82.2513 18.4294 82.3919 18.3764 82.5358 18.3083C82.653 18.259 82.7668 18.2023 82.8906 18.1455C83.0011 18.4521 83.1015 18.7361 83.2019 19.0162C83.3961 18.9216 83.5768 18.8458 83.771 18.755C83.6672 18.4635 83.5668 18.1833 83.4597 17.8842C83.7241 17.7631 83.9718 17.6495 84.2296 17.5322C84.1693 17.3618 84.1124 17.2028 84.0522 17.04C84.0321 16.987 84.0154 16.9378 83.9986 16.8848C83.7944 16.9832 83.5869 17.0816 83.376 17.1763Z" fill="#EBEBEB"/>
<path fill-rule="evenodd" clip-rule="evenodd" d="M115.882 68.2547V69.8789H116.565V68.1222V67.6679H115.882V68.2547ZM118.801 68.3494C118.758 67.9291 118.587 67.6679 118.085 67.6679C117.79 67.6679 117.593 67.7891 117.509 67.967H117.499V67.6679H116.953V68.0919V69.8789H117.526V68.781C117.526 68.4932 117.576 68.2131 117.891 68.2131C118.205 68.2131 118.229 68.5425 118.229 68.7999V69.8789H118.814V68.6636C118.818 68.55 118.814 68.444 118.801 68.3494ZM116.227 66.5625C116.04 66.5625 115.886 66.7366 115.886 66.9486C115.886 67.1606 116.04 67.3348 116.227 67.3348C116.414 67.3348 116.568 67.1606 116.568 66.9486C116.568 66.7366 116.414 66.5625 116.227 66.5625Z" fill="#E0E0E0"/>
<path d="M136.422 69.6252C136.388 70.2196 135.936 70.6701 135.411 70.6322C134.885 70.5944 134.487 70.0833 134.52 69.4889C134.554 68.8946 135.006 68.444 135.531 68.4819C136.057 68.5198 136.455 69.0308 136.422 69.6252Z" fill="#E0E0E0"/>
<path d="M139.207 67.6642C139.173 68.2585 138.721 68.709 138.196 68.6712C137.67 68.6333 137.272 68.1222 137.305 67.5279C137.339 66.9335 137.791 66.483 138.316 66.5208C138.842 66.5587 139.24 67.0698 139.207 67.6642Z" fill="#E0E0E0"/>
<path d="M138.949 72.2223C138.912 72.8697 138.457 73.3618 137.931 73.324C137.406 73.2861 137.011 72.7334 137.048 72.086C137.084 71.4386 137.54 70.9465 138.065 70.9843C138.591 71.0222 138.986 71.5749 138.949 72.2223Z" fill="#E0E0E0"/>
<path d="M137.727 71.9951C137.684 72.0595 137.074 71.609 136.368 70.9843C135.662 70.3634 135.126 69.8031 135.17 69.7388C135.213 69.6744 135.822 70.1249 136.529 70.7496C137.235 71.3743 137.771 71.9308 137.727 71.9951Z" fill="#E0E0E0"/>
<path d="M138.062 67.5089C138.102 67.5771 137.587 68.0541 136.907 68.5728C136.227 69.0914 135.645 69.4586 135.605 69.3905C135.565 69.3223 136.08 68.8453 136.76 68.3267C137.436 67.8042 138.022 67.4408 138.062 67.5089Z" fill="#E0E0E0"/>
<path fill-rule="evenodd" clip-rule="evenodd" d="M100.514 4.50891L99.7044 6.85613L100.692 7.2915L101.569 4.75499L101.796 4.09626L100.809 3.66089L100.514 4.50891ZM104.685 6.50404C104.829 5.86802 104.715 5.38344 103.992 5.06543C103.567 4.87992 103.222 4.92914 103.015 5.12979L103.002 5.12222L103.152 4.69063L102.366 4.34233L102.155 4.95564L101.264 7.53758L102.088 7.90102L102.637 6.31475C102.781 5.89831 102.992 5.5273 103.447 5.72795C103.902 5.9286 103.771 6.42076 103.641 6.79555L103.105 8.35153L103.952 8.72633L104.558 6.9697C104.605 6.8107 104.652 6.65169 104.685 6.50404ZM101.853 2.28284C101.579 2.1617 101.274 2.31313 101.167 2.62357C101.06 2.93401 101.194 3.27852 101.468 3.39966C101.743 3.52081 102.048 3.36938 102.155 3.05894C102.262 2.7485 102.125 2.4002 101.853 2.28284Z" fill="#E0E0E0"/>
<path fill-rule="evenodd" clip-rule="evenodd" d="M17.7142 81.1644V81.1568H17.7075C17.7075 81.1568 17.7075 81.1568 17.7075 81.1531V81.1568C17.6205 81.0925 17.5368 81.0849 17.4832 81.066H17.4799C17.115 80.9335 16.8071 80.6533 16.5761 80.3126C16.4489 80.1195 16.3351 79.9151 16.2581 79.6955C16.228 79.5971 16.228 79.4911 16.2681 79.4305H16.2748C16.3384 79.3283 16.4556 79.2564 16.5861 79.1996C16.7301 79.1466 16.8807 79.0784 17.0113 78.9573C17.038 78.9383 17.0615 78.9118 17.0749 78.8664C17.0749 78.8588 17.0815 78.8437 17.0849 78.8323C17.0916 78.7983 17.0916 78.7528 17.0749 78.7036C17.0414 78.6165 16.9778 78.5787 16.9309 78.5446C16.8472 78.4916 16.7535 78.4916 16.6732 78.5181C16.5861 78.5522 16.5125 78.5863 16.4489 78.59C16.4455 78.59 16.4455 78.5976 16.4455 78.5976C16.3518 78.609 16.2547 78.6165 16.1878 78.59C16.1878 78.5787 16.1878 78.5522 16.1811 78.5257C16.1811 78.3553 16.1911 78.1736 16.1911 77.9805C16.1978 77.6966 16.2112 77.4051 16.1744 77.1174V77.1098C16.0907 76.6176 15.8095 76.1936 15.4547 75.9059C15.197 75.7052 14.8857 75.5841 14.571 75.5576C14.4639 75.5462 14.3601 75.5349 14.253 75.5349C13.8313 75.5425 13.3928 75.6674 13.058 75.9703C12.8003 76.1936 12.5961 76.4927 12.4722 76.8296C12.4722 76.8296 12.4722 76.8296 12.4722 76.8334C12.3517 77.1741 12.3618 77.5489 12.3819 77.8859C12.3852 78.1206 12.4086 78.3515 12.3919 78.5787C12.3919 78.5825 12.3919 78.5825 12.3852 78.59C12.2915 78.609 12.1877 78.6014 12.0873 78.5825C12.0873 78.5825 12.0873 78.5825 12.0839 78.5825C12.0103 78.5711 11.9433 78.537 11.8563 78.5105C11.8563 78.5105 11.8563 78.5105 11.8496 78.5105C11.7693 78.484 11.6856 78.5105 11.6254 78.5673H11.622C11.622 78.5711 11.622 78.5711 11.622 78.5711C11.5684 78.609 11.4982 78.6695 11.4948 78.7869C11.4948 78.7907 11.4948 78.7983 11.4982 78.8058H11.5015C11.5115 78.874 11.5484 78.9156 11.5785 78.9459C11.6053 78.9762 11.6354 78.9989 11.6588 79.0103C11.6588 79.0178 11.6588 79.0178 11.6588 79.0178C11.8195 79.1352 11.9869 79.1806 12.1308 79.2488C12.2379 79.3018 12.3249 79.3775 12.3417 79.4797C12.3718 79.6047 12.3216 79.7485 12.258 79.8848C12.094 80.2558 11.8463 80.5776 11.5383 80.8199C11.3843 80.941 11.2002 81.0281 11.0128 81.0887H11.0094C10.9693 81.1114 10.8722 81.119 10.8186 81.2174C10.8153 81.2212 10.8086 81.2288 10.8086 81.2439C10.7952 81.3045 10.8086 81.3688 10.8387 81.4067C10.8622 81.4408 10.8923 81.4635 10.9224 81.4786C11.0764 81.5846 11.2571 81.6225 11.4111 81.6717C11.5283 81.7058 11.6354 81.7171 11.7191 81.7588C11.7224 81.7664 11.7358 81.7967 11.7526 81.8534C11.7827 81.9519 11.7927 82.073 11.8295 82.1904C11.8362 82.2207 11.863 82.2472 11.8931 82.2547C11.9634 82.2775 12.0036 82.2472 12.0103 82.2472C12.0103 82.2472 12.0136 82.2472 12.0136 82.2434C12.2814 82.1979 12.5459 82.1487 12.7869 82.2169C13.0446 82.2888 13.2589 82.4857 13.5133 82.6598C13.6773 82.781 13.8681 82.8908 14.089 82.8983C14.2564 82.9097 14.417 82.8983 14.5811 82.887C14.7217 82.8756 14.8489 82.8188 14.966 82.7431L14.9727 82.7355C15.2338 82.5727 15.4614 82.3683 15.7192 82.2396C15.8029 82.2093 15.91 82.2093 16.0238 82.2017C16.2347 82.1979 16.4489 82.2093 16.6564 82.2396C16.6631 82.2396 16.6765 82.2396 16.6799 82.2396C16.71 82.2358 16.7401 82.2131 16.7502 82.1979C16.7635 82.1752 16.7635 82.1563 16.7736 82.1412C16.7803 82.1222 16.7836 82.1109 16.7736 82.1298C16.7803 82.126 16.7803 82.1184 16.7836 82.1147C16.8171 81.9708 16.8439 81.8421 16.9008 81.7626C16.9309 81.7285 16.9778 81.7171 17.0347 81.7171C17.038 81.7171 17.0414 81.7171 17.0514 81.7171C17.2288 81.6906 17.3962 81.6187 17.5502 81.5581C17.5502 81.5506 17.5502 81.5506 17.5569 81.5506C17.6104 81.5241 17.6975 81.49 17.7544 81.3991C17.7544 81.3991 17.7544 81.3991 17.7611 81.3991H17.7544C17.8046 81.3121 17.7811 81.2098 17.7142 81.1644Z" fill="#E0E0E0"/>
<path d="M143.769 153.686C143.769 153.739 111.701 153.784 72.1523 153.784C32.5899 153.784 0.525513 153.739 0.525513 153.686C0.525513 153.633 32.5865 153.587 72.1523 153.587C111.698 153.587 143.769 153.633 143.769 153.686Z" fill="#263238"/>
<path d="M30.1563 139.148H26.173V153.686H30.1563V139.148Z" fill="#263238"/>
<path d="M71.6 139.148H67.6166V153.686H71.6V139.148Z" fill="#263238"/>
<path d="M46.5316 139.148H42.5483V153.686H46.5316V139.148Z" fill="#263238"/>
<path d="M85.6856 139.148H81.7023V153.686H85.6856V139.148Z" fill="#263238"/>
<path d="M85.7794 140.64C88.5711 140.666 90.9845 138.444 91.5268 135.347C92.4808 129.869 93.7093 122.207 93.7495 113.605C93.7729 108.328 92.7319 101.646 91.2858 96.6296C89.177 89.3002 84.6647 82.8453 78.1139 80.7291C69.6016 77.9806 66.522 79.0368 60.4868 82.6144C53.9226 86.5062 52.1451 93.8129 45.3098 97.0611C38.6754 100.215 30.6752 99.1396 24.6265 103.55C19.3075 107.431 16.71 114.889 16.4991 122.044C16.3652 126.583 16.7267 129.831 17.4698 133.356C18.2933 137.263 21.3561 140.038 24.9043 140.072L85.7794 140.64Z" fill="#455A64"/>
<path d="M34.8761 117.092L16.5995 144.426L10.2161 142.832L24.9445 113.601L34.8761 117.092Z" fill="#FFBE9D"/>
<path d="M16.8037 144.077L10.9526 154.004L0 145.834C0.753156 144.698 7.80604 146.549 7.80604 146.549L11.3241 140.015L16.8037 144.077Z" fill="#2F80ED"/>
<g opacity="0.6">
<g opacity="0.6">
<path opacity="0.6" d="M11.5082 148.533C11.6823 148.757 11.6722 149.135 11.4814 149.34C11.2906 149.544 10.9492 149.536 10.7718 149.317C10.5944 149.097 10.5944 148.643 10.8053 148.461C11.0161 148.28 11.4145 148.317 11.5383 148.579" fill="white"/>
</g>
</g>
<g opacity="0.6">
<path opacity="0.6" d="M10.9559 154L11.5116 152.974L0.800019 145.527C0.800019 145.527 0.174063 145.402 0 145.834L10.9559 154Z" fill="white"/>
</g>
<path d="M7.66545 146.349C7.63198 146.409 7.88303 146.637 8.03366 147.026C8.19099 147.413 8.17425 147.776 8.23785 147.787C8.29475 147.814 8.4253 147.39 8.23785 146.92C8.05375 146.455 7.68554 146.284 7.66545 146.349Z" fill="#263238"/>
<path d="M6.20266 146.031C6.1558 146.08 6.32652 146.356 6.35999 146.746C6.40351 147.136 6.28635 147.447 6.34325 147.485C6.38677 147.53 6.63113 147.204 6.58426 146.72C6.5374 146.235 6.23949 145.974 6.20266 146.031Z" fill="#263238"/>
<path d="M4.64276 147.098C4.68293 147.148 4.93398 146.902 4.99088 146.466C5.04779 146.035 4.87373 145.713 4.82017 145.747C4.75992 145.773 4.82017 146.072 4.76996 146.428C4.72644 146.788 4.5959 147.053 4.64276 147.098Z" fill="#263238"/>
<path d="M8.61274 144.963C8.6027 145.035 8.89726 145.134 9.18514 145.383C9.4797 145.626 9.64707 145.917 9.70398 145.883C9.76088 145.864 9.66046 145.467 9.31903 145.179C8.9776 144.891 8.61608 144.895 8.61274 144.963Z" fill="#263238"/>
<path d="M9.73076 143.687C9.71402 143.71 9.90482 143.907 10.2797 144.092C10.4672 144.183 10.7015 144.27 10.9693 144.32C11.1032 144.346 11.2471 144.361 11.3944 144.365C11.4647 144.365 11.5484 144.373 11.6455 144.342C11.7425 144.323 11.8697 144.187 11.8563 144.039C11.8563 143.903 11.7793 143.786 11.7024 143.725C11.622 143.661 11.5484 143.631 11.4781 143.604C11.3375 143.547 11.1969 143.506 11.0597 143.483C10.7885 143.434 10.5375 143.445 10.3333 143.483C9.92491 143.559 9.70398 143.721 9.71737 143.748C9.73076 143.786 9.96508 143.687 10.35 143.661C10.5442 143.65 10.7718 143.657 11.0195 143.714C11.1433 143.744 11.2705 143.782 11.3977 143.839C11.535 143.892 11.6321 143.964 11.6287 144.043C11.6254 144.074 11.622 144.085 11.5752 144.104C11.5283 144.119 11.4613 144.119 11.3911 144.119C11.2538 144.119 11.1199 144.108 10.9927 144.089C10.7383 144.055 10.514 143.99 10.3299 143.922C9.96508 143.79 9.75085 143.653 9.73076 143.687Z" fill="#263238"/>
<path d="M9.75087 143.824C9.76426 143.846 9.99523 143.71 10.2463 143.332C10.3701 143.142 10.4873 142.896 10.5676 142.597C10.6078 142.449 10.6346 142.287 10.648 142.116C10.6547 141.946 10.6714 141.723 10.4806 141.541C10.3735 141.454 10.2295 141.484 10.1492 141.545C10.0655 141.601 10.0153 141.67 9.96175 141.73C9.85798 141.859 9.77765 142.003 9.7174 142.147C9.59689 142.434 9.56676 142.726 9.57681 142.961C9.60359 143.441 9.78434 143.68 9.80108 143.665C9.8379 143.65 9.7174 143.392 9.73413 142.961C9.74083 142.748 9.78769 142.495 9.9015 142.249C9.95841 142.128 10.0287 142.006 10.1191 141.897C10.2128 141.779 10.3199 141.704 10.3534 141.749C10.407 141.787 10.4438 141.957 10.427 142.094C10.417 142.245 10.3969 142.393 10.3668 142.533C10.3065 142.809 10.2095 143.044 10.1124 143.229C9.91489 143.612 9.72744 143.793 9.75087 143.824Z" fill="#263238"/>
<path d="M49.551 105.22H32.9179C29.276 105.22 25.8952 107.351 23.9771 110.853L16.2414 124.985L25.8617 131.569L33.8117 119.784L42.8629 118.943L62.2977 105.223H49.551V105.22Z" fill="#263238"/>
<path d="M40.8311 117.092L22.5545 144.426L16.1744 142.832L30.8995 113.601L40.8311 117.092Z" fill="#FFBE9D"/>
<path d="M22.762 144.077L16.9109 154.004L5.95496 145.834C6.70811 144.698 13.761 146.549 13.761 146.549L17.2791 140.015L22.762 144.077Z" fill="#2F80ED"/>
<g opacity="0.6">
<g opacity="0.6">
<path opacity="0.6" d="M17.4632 148.533C17.6372 148.757 17.6272 149.135 17.4364 149.34C17.2456 149.544 16.9041 149.536 16.7267 149.317C16.5493 149.097 16.5493 148.643 16.7602 148.461C16.9711 148.28 17.3694 148.317 17.4933 148.579" fill="white"/>
</g>
</g>
<g opacity="0.6">
<path opacity="0.6" d="M16.9109 154L17.4665 152.974L6.75497 145.527C6.75497 145.527 6.12567 145.402 5.95496 145.834L16.9109 154Z" fill="white"/>
</g>
<path d="M13.6204 146.349C13.5869 146.409 13.838 146.637 13.9886 147.026C14.1459 147.413 14.1292 147.776 14.1928 147.787C14.2497 147.814 14.3803 147.39 14.1928 146.92C14.0087 146.455 13.6438 146.284 13.6204 146.349Z" fill="#263238"/>
<path d="M12.161 146.031C12.1141 146.08 12.2848 146.356 12.3183 146.746C12.3618 147.136 12.2447 147.447 12.3016 147.485C12.3451 147.53 12.5894 147.204 12.5426 146.72C12.4957 146.235 12.1945 145.974 12.161 146.031Z" fill="#263238"/>
<path d="M10.6011 147.098C10.6413 147.148 10.8923 146.902 10.9493 146.466C11.0062 146.035 10.8321 145.713 10.7785 145.747C10.7183 145.773 10.7785 146.072 10.7283 146.428C10.6848 146.788 10.5509 147.053 10.6011 147.098Z" fill="#263238"/>
<path d="M14.5711 144.963C14.561 145.035 14.8556 145.134 15.1434 145.383C15.438 145.626 15.6054 145.917 15.6623 145.883C15.7192 145.864 15.6188 145.467 15.2773 145.179C14.9359 144.891 14.5711 144.895 14.5711 144.963Z" fill="#263238"/>
<path d="M15.6891 143.687C15.6723 143.71 15.8631 143.907 16.238 144.092C16.4255 144.183 16.6598 144.27 16.9276 144.32C17.0615 144.346 17.2054 144.361 17.3527 144.365C17.423 144.365 17.5067 144.373 17.6038 144.342C17.7008 144.323 17.828 144.187 17.8147 144.039C17.8147 143.903 17.7377 143.786 17.6607 143.725C17.5803 143.661 17.5067 143.631 17.4364 143.604C17.2958 143.547 17.1552 143.506 17.018 143.483C16.7468 143.434 16.4958 143.445 16.2916 143.483C15.8832 143.559 15.6623 143.721 15.6757 143.748C15.6891 143.786 15.9234 143.687 16.3083 143.661C16.5025 143.65 16.7301 143.657 16.9812 143.714C17.105 143.744 17.2322 143.782 17.3594 143.839C17.4967 143.892 17.5937 143.964 17.5904 144.043C17.587 144.074 17.5837 144.085 17.5368 144.104C17.49 144.119 17.423 144.119 17.3527 144.119C17.2155 144.119 17.0816 144.108 16.9544 144.089C16.7 144.055 16.4757 143.99 16.2916 143.922C15.9234 143.79 15.7058 143.653 15.6891 143.687Z" fill="#263238"/>
<path d="M15.7058 143.824C15.7192 143.846 15.9535 143.71 16.2012 143.332C16.3251 143.142 16.4422 142.896 16.5226 142.597C16.5628 142.449 16.5895 142.287 16.6029 142.116C16.6096 141.946 16.6263 141.723 16.4355 141.541C16.3284 141.454 16.1845 141.484 16.1042 141.545C16.0205 141.601 15.9703 141.67 15.9167 141.73C15.8129 141.859 15.7326 142.003 15.6724 142.147C15.5518 142.434 15.5217 142.726 15.5318 142.961C15.5585 143.441 15.7393 143.68 15.756 143.665C15.7929 143.65 15.6724 143.392 15.6891 142.961C15.6958 142.748 15.7426 142.495 15.8565 142.249C15.9134 142.128 15.9837 142.006 16.074 141.897C16.1678 141.779 16.2749 141.704 16.3084 141.749C16.3619 141.787 16.3987 141.957 16.382 142.094C16.3719 142.245 16.3519 142.393 16.3217 142.533C16.2615 142.809 16.1644 143.044 16.0673 143.229C15.8732 143.612 15.6824 143.793 15.7058 143.824Z" fill="#263238"/>
<path d="M55.5059 105.22H38.2971C35.0134 105.22 31.9639 107.139 30.2367 110.296L22.1964 124.982L31.8167 131.565L40.4093 118.826L48.8179 118.939L67.5263 105.731L55.5059 105.22Z" fill="#263238"/>
<path d="M31.8167 131.565C31.8133 131.569 31.7531 131.531 31.6326 131.455C31.5054 131.372 31.3313 131.259 31.107 131.111C30.6417 130.8 29.9756 130.354 29.1354 129.79C27.435 128.635 25.0282 127.003 22.1562 125.057L22.0892 125.012L22.1294 124.936C23.6558 122.142 25.3763 118.852 27.2944 115.422C28.8542 112.636 30.4208 110.031 31.974 107.775C32.3623 107.184 32.9045 106.779 33.4468 106.488C33.9924 106.189 34.5548 105.992 35.1004 105.833C36.1983 105.522 37.2427 105.375 38.1934 105.28C40.1014 105.102 41.6512 105.129 42.719 105.155C43.2546 105.17 43.6663 105.193 43.9475 105.212C44.0814 105.223 44.1851 105.231 44.2655 105.235C44.3358 105.242 44.3726 105.246 44.3726 105.25C44.3726 105.254 44.3358 105.254 44.2621 105.254C44.1818 105.254 44.0747 105.25 43.9408 105.25C43.6496 105.246 43.2345 105.239 42.7123 105.231C41.6445 105.227 40.098 105.22 38.1967 105.416C37.2494 105.519 36.2084 105.674 35.1272 105.988C34.5883 106.147 34.036 106.348 33.5037 106.639C32.9748 106.931 32.456 107.317 32.0911 107.881C30.548 110.137 28.9881 112.738 27.4316 115.525C25.5169 118.951 23.7897 122.233 22.2499 125.023L22.2231 124.902C25.0818 126.875 27.4785 128.529 29.1689 129.695C29.999 130.274 30.6585 130.736 31.1204 131.058C31.338 131.213 31.5087 131.334 31.6326 131.425C31.7598 131.516 31.82 131.561 31.8167 131.565Z" fill="#455A64"/>
<path d="M24.4357 126.447C24.4759 126.473 22.9495 129.555 21.0281 133.329C19.1034 137.104 17.5101 140.14 17.4665 140.114C17.4264 140.087 18.9494 137.005 20.8775 133.231C22.7989 129.456 24.3956 126.42 24.4357 126.447Z" fill="#2F80ED"/>
<path d="M81.1199 82.073C81.1232 82.073 81.1433 82.1184 81.1835 82.2093C81.227 82.3115 81.2839 82.444 81.3575 82.6182C81.5115 82.9892 81.7291 83.523 82.0069 84.2044C82.1475 84.5489 82.3015 84.9351 82.4722 85.3515C82.6396 85.7718 82.7835 86.2488 82.9609 86.7485C83.1316 87.252 83.3157 87.7896 83.5099 88.3575C83.7174 88.9216 83.8881 89.5387 84.0656 90.186C84.2463 90.8334 84.4371 91.5111 84.638 92.2152C84.7451 92.5673 84.8254 92.9308 84.9091 93.3056C84.9928 93.6766 85.0798 94.0589 85.1668 94.4451C85.2539 94.8312 85.3442 95.225 85.4346 95.6225C85.4815 95.8231 85.525 96.0238 85.5719 96.2244C85.6087 96.4289 85.6455 96.6371 85.6857 96.8453C85.833 97.6782 85.9836 98.5376 86.1409 99.4159C86.6832 102.948 87.0849 106.878 87.192 111.016C87.279 115.157 87.0916 119.102 86.787 122.672C86.5962 124.452 86.4422 126.148 86.2012 127.723C86.0874 128.51 85.9936 129.271 85.8765 130.002C85.7526 130.729 85.6321 131.425 85.5183 132.091C85.3074 133.428 85.0463 134.617 84.8354 135.669C84.7283 136.191 84.6279 136.68 84.5342 137.13C84.4304 137.577 84.3333 137.982 84.2463 138.349C84.0722 139.072 83.9384 139.64 83.8446 140.034C83.7978 140.22 83.7609 140.363 83.7342 140.469C83.7074 140.568 83.694 140.617 83.6906 140.617C83.6873 140.617 83.6973 140.564 83.7174 140.466C83.7409 140.356 83.771 140.212 83.8112 140.023C83.8982 139.625 84.022 139.057 84.1827 138.33C84.263 137.963 84.3568 137.554 84.4538 137.108C84.5409 136.657 84.638 136.169 84.7417 135.643C84.9426 134.59 85.197 133.398 85.3978 132.065C85.5083 131.399 85.6221 130.702 85.7426 129.975C85.8564 129.248 85.9468 128.483 86.0539 127.7C86.2882 126.129 86.4355 124.436 86.6229 122.657C86.9175 119.091 87.0983 115.157 87.0146 111.023C86.9075 106.893 86.5125 102.975 85.9802 99.45C85.8263 98.5717 85.679 97.7161 85.5317 96.8832C85.4949 96.6749 85.4581 96.4705 85.4212 96.2661C85.3744 96.0654 85.3309 95.861 85.2873 95.6641C85.197 95.2666 85.1099 94.8729 85.0229 94.4867C84.9359 94.1006 84.8522 93.722 84.7685 93.351C84.6882 92.98 84.6078 92.6128 84.5041 92.2607C84.3099 91.5565 84.1225 90.8788 83.945 90.2315C83.7676 89.5841 83.6036 88.967 83.3994 88.4029C83.2086 87.8312 83.0312 87.2937 82.8638 86.7901C82.6931 86.2866 82.5525 85.8134 82.3885 85.3894C82.2245 84.9692 82.0739 84.583 81.9366 84.2385C81.6722 83.5533 81.4646 83.0157 81.3174 82.6409C81.2504 82.4629 81.2002 82.3267 81.16 82.2244C81.1333 82.1222 81.1165 82.073 81.1199 82.073Z" fill="#263238"/>
<path d="M37.3933 131.713C37.4201 131.717 37.4034 132.171 37.3866 132.902C37.3699 133.636 37.3599 134.647 37.3866 135.767C37.4168 136.884 37.477 137.895 37.5306 138.63C37.5841 139.36 37.6209 139.815 37.5942 139.818C37.5707 139.822 37.4904 139.375 37.4067 138.645C37.323 137.914 37.2393 136.899 37.2126 135.775C37.1858 134.651 37.2159 133.632 37.2628 132.898C37.313 132.163 37.3699 131.713 37.3933 131.713Z" fill="#263238"/>
<path d="M52.5033 87.1725L49.0957 100.359L36.4862 101.888V104.417L55.0172 104.708L57.5411 87.536L52.5033 87.1725Z" fill="#FFBE9D"/>
<path d="M76.7382 78.5219C75.2486 74.6566 71.0376 73.3315 68.7983 73.324C65.6752 73.3164 65.9597 73.1006 62.8902 73.7253L62.4851 73.7101C53.1527 73.2823 52.0816 87.7783 52.0816 87.7783L56.336 88.172L55.2147 98.159L51.9577 105.227L69.8761 105.193L70.8803 88.6907L78.8571 88.4484C78.8504 88.4522 78.114 82.0995 76.7382 78.5219Z" fill="#2F80ED"/>
<path d="M56.8482 81.6566C56.8951 81.6641 56.5804 85.1812 56.1452 89.5159C55.7101 93.8507 55.3151 97.3602 55.2682 97.3526C55.2214 97.345 55.536 93.828 55.9712 89.4932C56.4063 85.1622 56.8013 81.6528 56.8482 81.6566Z" fill="#263238"/>
<path d="M69.7255 73.2823C69.7322 73.2823 69.7389 73.3429 69.7489 73.4603C69.7589 73.5776 69.769 73.7518 69.7723 73.9789C69.779 74.4257 69.7489 75.092 69.538 75.8681C69.3372 76.6328 68.9957 77.5641 68.3062 78.3289C67.9681 78.7112 67.543 79.0406 67.0509 79.2488C66.5589 79.4533 66.0166 79.5328 65.471 79.5441C64.9254 79.5517 64.3931 79.5252 63.881 79.4154C63.3722 79.3094 62.8868 79.0936 62.5052 78.7567C61.7353 78.0828 61.3671 77.1325 61.1964 76.3564C61.0156 75.5728 60.9989 74.9065 61.0156 74.4597C61.0223 74.2364 61.0391 74.0622 61.0491 73.9411C61.0625 73.8237 61.0726 73.7631 61.0759 73.7631C61.0893 73.7631 61.0792 74.013 61.0826 74.4597C61.0859 74.9065 61.1228 75.5538 61.3136 76.3186C61.4943 77.0758 61.8625 77.9806 62.5989 78.609C62.9638 78.9232 63.419 79.1239 63.9111 79.2223C64.4032 79.3245 64.9321 79.3473 65.4676 79.3435C66.0032 79.3321 66.522 79.2564 66.9907 79.0633C67.4593 78.8702 67.8643 78.5598 68.1924 78.1964C68.8619 77.4695 69.2033 76.5798 69.4175 75.8226C69.6418 75.0655 69.6886 74.4181 69.702 73.9752C69.7154 73.5322 69.7121 73.2861 69.7255 73.2823Z" fill="#263238"/>
<g opacity="0.2">
<g opacity="0.2">
<path opacity="0.2" d="M70.5456 81.6603C69.7824 85.7907 68.7849 90.0384 68.0217 94.1687C67.8577 95.0471 67.6836 95.9557 67.2116 96.675C66.9137 97.1255 66.5187 97.4738 66.1204 97.8107C64.6141 99.0903 63.0274 100.287 61.2567 101.014C63.814 100.771 66.348 100.272 68.8284 99.5219C69.2468 99.397 69.6954 99.2418 69.9665 98.8556C70.2075 98.5149 70.2611 98.0606 70.3079 97.629C70.8535 92.3326 70.6962 86.9908 70.5456 81.6603Z" fill="black"/>
</g>
</g>
<path d="M45.7852 100.041L51.3418 99.2834L55.2582 102.187L70.2276 98.1287L70.6661 88.6793L77.3842 88.4938L77.2269 99.5825C77.1599 103.153 74.5356 105.977 71.3824 105.878L49.4572 105.193L48.5266 103.084L43.8236 102.925L45.7852 100.041Z" fill="#FFBE9D"/>
<path d="M70.2276 98.1325C70.2276 98.1401 70.1305 98.1704 69.9464 98.2309C69.7456 98.2915 69.4744 98.371 69.133 98.4694C68.4066 98.6739 67.3857 98.9616 66.1304 99.3175C63.5764 100.018 60.0717 100.979 56.2055 102.039C55.8942 102.123 55.5863 102.206 55.2816 102.289L55.2448 102.301L55.2147 102.278C53.8289 101.248 52.5134 100.268 51.305 99.3667L51.3585 99.3818C49.1593 99.6695 47.258 99.9194 45.7986 100.109L45.8354 100.086C45.2128 100.979 44.7174 101.691 44.3693 102.195C44.2052 102.426 44.0713 102.611 43.9743 102.751C43.8839 102.876 43.8337 102.941 43.8303 102.937C43.827 102.933 43.8672 102.865 43.9508 102.732C44.0446 102.588 44.1684 102.399 44.3257 102.157C44.6672 101.646 45.1492 100.923 45.7551 100.014L45.7685 99.9951L45.7919 99.9913C47.248 99.7869 49.1493 99.5181 51.3451 99.2077L51.3753 99.2039L51.3987 99.2228C52.6105 100.116 53.9293 101.093 55.3185 102.119L55.2515 102.104C55.5561 102.021 55.8641 101.937 56.1754 101.854C60.0483 100.817 63.5563 99.874 66.1137 99.1887C67.3756 98.8594 68.4033 98.5944 69.1297 98.4013C69.4744 98.3142 69.7489 98.2461 69.9531 98.1969C70.1238 98.1439 70.2243 98.1249 70.2276 98.1325Z" fill="#2F80ED"/>
<path d="M49.0087 101.843C49.0087 101.896 48.0413 101.941 46.8497 101.941C46.7158 101.941 46.5819 101.941 46.4547 101.941L46.5116 101.918C45.7417 102.649 45.1392 103.171 45.1124 103.137C45.0856 103.1 45.6413 102.513 46.4011 101.771L46.4245 101.748H46.458C46.5852 101.748 46.7191 101.748 46.853 101.748C48.0447 101.744 49.0087 101.79 49.0087 101.843Z" fill="#2F80ED"/>
<path d="M72.8418 99.7112C72.7949 99.7415 72.5071 98.9503 71.7506 98.424C71.0041 97.8789 70.2476 97.9281 70.251 97.8675C70.2476 97.8448 70.4317 97.7956 70.733 97.8259C71.0342 97.8524 71.446 97.9773 71.841 98.2575C72.2326 98.5376 72.5138 98.9048 72.6644 99.2001C72.8217 99.4954 72.8619 99.7036 72.8418 99.7112Z" fill="#2F80ED"/>
<path d="M78.9776 88.4938C78.9776 88.5089 78.7633 88.5241 78.3784 88.5468C77.9633 88.5657 77.411 88.5884 76.7415 88.6149C75.3591 88.6641 73.4511 88.7171 71.3422 88.7663C71.1113 88.7701 70.8803 88.7777 70.6661 88.7815H70.5824L70.579 88.6868C70.5021 86.4721 70.5389 84.5035 70.5757 83.0876C70.5958 82.3796 70.6192 81.8118 70.6393 81.418C70.6594 81.0243 70.6761 80.8123 70.6895 80.8123C70.6995 80.8123 70.7062 81.0281 70.7029 81.4218C70.6996 81.8458 70.6962 82.4099 70.6929 83.0914C70.6862 84.5073 70.6728 86.4759 70.7531 88.6793L70.6661 88.5846C70.8803 88.5808 71.1113 88.5733 71.3422 88.5695C73.4511 88.5203 75.3591 88.49 76.7415 88.4786C77.411 88.4748 77.9633 88.4748 78.3784 88.4748C78.7633 88.4748 78.9776 88.4824 78.9776 88.4938Z" fill="#263238"/>
<path d="M85.284 113.76C85.2505 113.798 84.4338 112.988 83.4631 111.951C82.489 110.91 81.7291 110.035 81.7626 109.997C81.7961 109.959 82.6095 110.77 83.5836 111.807C84.5576 112.844 85.3175 113.719 85.284 113.76Z" fill="#FAFAFA"/>
<path d="M80.9927 133.102C81.0027 133.129 80.7349 133.307 80.2964 133.594C79.8579 133.878 79.2554 134.276 78.5993 134.73C77.9432 135.184 77.3574 135.612 76.9323 135.919C76.5072 136.229 76.2427 136.419 76.2294 136.396C76.216 136.373 76.457 136.146 76.862 135.805C77.2704 135.465 77.8495 135.018 78.5089 134.56C79.1683 134.105 79.7843 133.727 80.2395 133.469C80.6947 133.216 80.9826 133.08 80.9927 133.102Z" fill="#FAFAFA"/>
<path d="M88.7686 92.9951C88.7284 93.0254 88.1459 92.185 87.4664 91.1174C86.7869 90.046 86.2647 89.1563 86.3049 89.1222C86.3451 89.0919 86.9275 89.9324 87.607 91C88.2865 92.0714 88.8087 92.9611 88.7686 92.9951Z" fill="#FAFAFA"/>
<path d="M90.2715 97.9319C90.315 97.9546 89.9669 98.8708 89.4916 99.9724C89.0196 101.074 88.5978 101.952 88.5543 101.926C88.5108 101.903 88.8589 100.987 89.3343 99.8853C89.8096 98.7837 90.228 97.9091 90.2715 97.9319Z" fill="#FAFAFA"/>
<path d="M91.4967 113.787C91.4532 113.81 90.8172 112.477 90.074 110.807C89.3309 109.138 88.7652 107.764 88.8087 107.741C88.8523 107.718 89.4883 109.051 90.2314 110.72C90.9711 112.39 91.5402 113.764 91.4967 113.787Z" fill="#FAFAFA"/>
<path d="M91.3326 120.806C91.3728 120.836 90.7669 121.9 89.977 123.18C89.1903 124.459 88.5175 125.47 88.4807 125.44C88.4405 125.409 89.0464 124.346 89.8364 123.066C90.623 121.79 91.2958 120.776 91.3326 120.806Z" fill="#FAFAFA"/>
<path d="M89.3142 135.59C89.3477 135.627 88.9728 136.146 88.4707 136.748C87.9686 137.35 87.5334 137.812 87.4999 137.774C87.4665 137.736 87.8414 137.217 88.3435 136.615C88.8423 136.01 89.2774 135.552 89.3142 135.59Z" fill="#FAFAFA"/>
<path d="M19.5519 117.913C19.5051 117.898 19.8398 116.532 20.295 114.866C20.7536 113.2 21.162 111.86 21.2055 111.875C21.2524 111.89 20.9176 113.257 20.4591 114.923C20.0072 116.592 19.5988 117.929 19.5519 117.913Z" fill="#FAFAFA"/>
<path d="M25.691 107.968C25.6809 108.025 24.9044 107.892 23.9403 107.934C22.9763 107.968 22.2097 108.157 22.1963 108.097C22.183 108.051 22.9495 107.767 23.9336 107.733C24.9211 107.696 25.701 107.919 25.691 107.968Z" fill="#FAFAFA"/>
<path d="M69.8895 60.8459L69.046 74.3651C68.9088 76.5722 67.2853 78.2834 65.3271 78.2834C63.1714 78.2834 61.4676 76.2239 61.6082 73.7934C61.6818 72.5062 61.7521 71.4538 61.7521 71.4538C61.7521 71.4538 58.8566 70.9465 58.8232 67.6717C58.7897 64.7529 59.496 56.1098 59.65 54.2812H64.8685C67.8744 54.4781 70.1473 57.4462 69.8895 60.8459Z" fill="#FFBE9D"/>
<path d="M61.7454 71.4045C61.7454 71.4045 63.5731 71.5711 65.5179 70.1931C65.5179 70.1931 64.6275 72.5479 61.7387 72.2526L61.7454 71.4045Z" fill="#2F80ED"/>
<path d="M60.0885 62.1293C60.0818 62.3754 60.2592 62.5874 60.4868 62.6026C60.7145 62.6177 60.9053 62.4284 60.9119 62.1823C60.9186 61.9363 60.7412 61.7242 60.5136 61.7091C60.2893 61.694 60.0985 61.8832 60.0885 62.1293Z" fill="#263238"/>
<path d="M59.8341 61.4857C59.8843 61.5463 60.199 61.2851 60.6442 61.2851C61.0894 61.2775 61.414 61.5387 61.4643 61.4781C61.4877 61.4516 61.4341 61.3419 61.2935 61.2245C61.153 61.1071 60.9153 60.9936 60.6375 60.9973C60.3596 60.9973 60.1287 61.1147 59.9948 61.2321C59.8542 61.3494 59.8073 61.4592 59.8341 61.4857Z" fill="#263238"/>
<path d="M64.2794 62.2656C64.2727 62.5117 64.4501 62.7237 64.6777 62.7388C64.9053 62.754 65.0961 62.5647 65.1028 62.3186C65.1095 62.0725 64.9321 61.8605 64.7045 61.8454C64.4769 61.8302 64.2861 62.0195 64.2794 62.2656Z" fill="#263238"/>
<path d="M64.2024 61.5804C64.2526 61.641 64.5672 61.3797 65.0124 61.3797C65.4576 61.3722 65.7823 61.6334 65.8325 61.5728C65.856 61.5463 65.8057 61.4365 65.6618 61.3192C65.5212 61.2018 65.2836 61.0882 65.0057 61.092C64.7279 61.092 64.4969 61.2094 64.363 61.3267C64.2258 61.4441 64.1789 61.5539 64.2024 61.5804Z" fill="#263238"/>
<path d="M62.589 65.3094C62.5923 65.2791 62.3145 65.2261 61.8659 65.1617C61.7521 65.1466 61.645 65.1239 61.6249 65.0368C61.5981 64.9422 61.645 64.8059 61.7019 64.6544C61.809 64.344 61.9195 64.0184 62.0366 63.6777C62.5019 62.2845 62.84 61.1412 62.7898 61.1185C62.7396 61.0995 62.3212 62.2088 61.8559 63.602C61.7421 63.9465 61.635 64.2721 61.5345 64.5863C61.491 64.7339 61.4174 64.8967 61.4743 65.0898C61.5044 65.1844 61.5881 65.2564 61.6617 65.2791C61.7354 65.3056 61.799 65.3056 61.8559 65.3094C62.3078 65.3359 62.589 65.3397 62.589 65.3094Z" fill="#263238"/>
<path d="M63.8978 65.6577C63.8242 65.6539 63.8242 66.1991 63.4125 66.5852C63.0007 66.9752 62.4852 66.9108 62.4819 66.9903C62.4752 67.0244 62.5957 67.0963 62.8133 67.1039C63.0275 67.1115 63.3388 67.0357 63.5899 66.7972C63.8409 66.5587 63.9514 66.2407 63.9681 66.0174C63.9849 65.7902 63.9313 65.6539 63.8978 65.6577Z" fill="#263238"/>
<path d="M64.0886 59.6079C64.1321 59.7442 64.5773 59.6798 65.0995 59.7518C65.6217 59.8124 66.0434 59.9827 66.1137 59.8616C66.1438 59.801 66.0702 59.6761 65.8995 59.5436C65.7321 59.4111 65.461 59.2861 65.1497 59.2445C64.835 59.2066 64.5505 59.2634 64.3597 59.3505C64.1656 59.4376 64.0718 59.5436 64.0886 59.6079Z" fill="#263238"/>
<path d="M59.9981 60.032C60.0751 60.1455 60.3831 60.0282 60.7513 60.0206C61.1195 60.0017 61.4308 60.0963 61.5044 59.979C61.5346 59.9222 61.4877 59.8048 61.3505 59.6988C61.2166 59.5928 60.9923 59.5019 60.7379 59.5133C60.4835 59.5209 60.2659 59.6269 60.1387 59.7442C60.0048 59.8578 59.9613 59.9752 59.9981 60.032Z" fill="#263238"/>
<path d="M68.9121 63.3029C68.9624 63.2802 70.9005 62.6366 70.8369 64.874C70.7733 67.1115 68.8017 66.5777 68.7983 66.5133C68.7983 66.4489 68.9121 63.3029 68.9121 63.3029Z" fill="#FFBE9D"/>
<path d="M69.4276 65.688C69.4377 65.6804 69.4611 65.7183 69.518 65.7485C69.5749 65.7788 69.672 65.8053 69.7757 65.7637C69.9866 65.6842 70.1741 65.317 70.1942 64.9119C70.2042 64.7074 70.1741 64.5144 70.1138 64.3516C70.0569 64.185 69.9665 64.0676 69.8628 64.0411C69.759 64.0109 69.682 64.079 69.6552 64.1396C69.6285 64.2001 69.6385 64.2456 69.6285 64.2494C69.6218 64.2531 69.5883 64.2115 69.605 64.1169C69.6151 64.0714 69.6385 64.0222 69.6854 63.9806C69.7356 63.9389 69.8059 63.92 69.8762 63.9313C70.0268 63.9503 70.1607 64.1131 70.2276 64.291C70.3013 64.4727 70.3415 64.6923 70.3281 64.9194C70.3013 65.37 70.087 65.7826 69.7992 65.8659C69.6586 65.9038 69.5448 65.8508 69.4845 65.794C69.431 65.741 69.4209 65.6918 69.4276 65.688Z" fill="#2F80ED"/>
<path d="M70.0134 63.2234C69.7122 63.1401 69.19 63.4543 69.0628 63.7761C68.9356 64.0941 68.9054 64.4576 68.7782 64.7756C68.651 65.0936 68.3598 65.3851 68.0586 65.3018C67.851 65.245 67.7004 65.0254 67.6468 64.7907C67.5933 64.556 67.6134 64.3099 67.6401 64.0676C67.7573 63.0227 67.9514 61.9854 67.9883 60.9329C68.0251 59.8805 67.8945 58.7864 67.4058 57.8891C66.9171 56.9919 66.02 56.3332 65.0928 56.4165C64.4769 56.4732 63.9145 56.8367 63.302 56.9313C62.5789 57.0449 61.8124 56.7572 61.2935 56.1742C61.2266 56.0984 60.9186 55.8675 60.9186 55.8675C60.9186 55.8145 60.9655 55.3451 61.1262 55.1747C62.3379 53.9064 64.5204 53.5544 66.1204 54.0087C67.7205 54.463 69.2201 55.7426 69.9097 57.4386C70.5959 59.1498 70.3917 61.5084 70.0134 63.2234Z" fill="#263238"/>
<path d="M69.9565 63.0341C70.0636 61.9362 70.549 60.9367 70.7967 59.8691C71.0444 58.8015 70.9942 57.503 70.2377 56.8026C69.9799 56.5641 69.6619 56.4164 69.4209 56.1552C69.1799 55.894 69.0393 55.5381 68.8586 55.2163C68.3029 54.2282 67.3288 53.5544 66.2978 53.4521C65.5849 53.3802 64.8685 53.5657 64.1522 53.5165C63.0208 53.437 61.9496 52.7669 60.8182 52.8199C60.4433 52.8388 60.0416 52.96 59.8073 53.2893C59.573 53.6225 59.6065 54.2055 59.9479 54.391C59.7705 54.0617 59.2985 54.073 59.0709 54.3607C58.8466 54.6485 58.85 55.1028 59.0106 55.4397C59.168 55.7804 59.4492 56.0227 59.7404 56.2234C60.7011 56.8745 61.8693 57.1168 62.9706 56.8972L65.1062 55.5798L67.523 56.1817L69.8226 57.9194L68.8017 62.7312L69.9565 63.0341Z" fill="#263238"/>
<path d="M20.6331 89.6371L27.6391 105.216H49.7384L48.8447 103.179L42.4412 102.963L37.226 89.8302C36.9013 89.0087 36.1782 88.4824 35.3816 88.4824H21.2591C20.7369 88.4824 20.3955 89.1109 20.6331 89.6371Z" fill="#E0E0E0"/>
<path d="M31.0367 97.5533C31.5359 97.5533 31.9405 97.0956 31.9405 96.5311C31.9405 95.9666 31.5359 95.5089 31.0367 95.5089C30.5376 95.5089 30.1329 95.9666 30.1329 96.5311C30.1329 97.0956 30.5376 97.5533 31.0367 97.5533Z" fill="#263238"/>
<path d="M79.6839 89.3153C79.6337 93.6803 77.2805 97.7009 74.2143 100.351C71.1481 103.001 67.4192 104.474 63.7103 105.681C60.0014 106.889 56.2089 107.889 52.7209 109.755C47.8873 112.341 43.4119 115.888 40.6838 121.086C37.9557 126.284 36.9816 133.114 37.2863 139.148L78.3249 134.507L80.5709 108.127L79.6839 89.3153Z" fill="#455A64"/>
<path d="M63.7103 105.681C63.7103 105.685 63.6801 105.697 63.6232 105.712C63.5529 105.731 63.4693 105.753 63.3621 105.784C63.1312 105.848 62.7898 105.92 62.3512 106.041C61.4742 106.272 60.2156 106.635 58.6792 107.169C57.1461 107.707 55.3385 108.426 53.3937 109.392C51.4589 110.372 49.3769 111.595 47.4086 113.246C46.4379 114.082 45.5442 114.991 44.7174 115.896C43.8906 116.808 43.1341 117.732 42.4713 118.671C41.1323 120.529 40.1449 122.4 39.4687 124.043C38.7992 125.693 38.4076 127.098 38.2001 128.086C38.0762 128.574 38.0293 128.968 37.9691 129.226C37.9457 129.347 37.9256 129.445 37.9088 129.521C37.8954 129.589 37.8854 129.623 37.8821 129.619C37.8787 129.619 37.8821 129.585 37.8921 129.517C37.9021 129.438 37.9189 129.339 37.9356 129.214C37.9825 128.953 38.0193 128.555 38.1365 128.063C38.3239 127.068 38.7022 125.644 39.3616 123.978C40.0277 122.316 41.0118 120.431 42.3508 118.549C43.0136 117.603 43.7734 116.668 44.6035 115.752C45.437 114.836 46.3274 113.927 47.3116 113.079C49.2932 111.417 51.3886 110.194 53.3368 109.217C55.2917 108.256 57.1093 107.552 58.6524 107.029C60.1955 106.511 61.4642 106.17 62.3479 105.962C62.7864 105.852 63.1345 105.787 63.3655 105.738C63.4726 105.716 63.563 105.7 63.6299 105.685C63.6768 105.681 63.7069 105.678 63.7103 105.681Z" fill="#263238"/>
<path d="M72.5138 127.844C72.5373 127.889 71.2653 128.771 69.6686 129.812C68.0719 130.853 66.7597 131.656 66.7363 131.611C66.7128 131.565 67.9848 130.683 69.5815 129.642C71.1782 128.605 72.4904 127.798 72.5138 127.844Z" fill="#FAFAFA"/>
<path d="M53.9962 129.176C53.9795 129.195 53.7251 128.923 53.3234 128.48C52.9217 128.037 52.3694 127.423 51.7468 126.757C51.1242 126.091 50.5518 125.5 50.1401 125.069C49.725 124.637 49.4739 124.368 49.4873 124.349C49.5007 124.33 49.7852 124.561 50.2204 124.966C50.6556 125.372 51.2413 125.947 51.8673 126.617C52.4899 127.287 53.0322 127.916 53.4138 128.389C53.7954 128.854 54.0163 129.161 53.9962 129.176Z" fill="#FAFAFA"/>
<path d="M62.5621 116.225C62.609 116.24 62.3546 117.497 61.9931 119.03C61.6316 120.567 61.3035 121.802 61.2567 121.786C61.2098 121.771 61.4642 120.514 61.8257 118.977C62.1839 117.448 62.5153 116.214 62.5621 116.225Z" fill="#FAFAFA"/>
<path d="M78.9542 119.454C78.9341 119.504 77.7424 118.955 76.2897 118.224C74.8369 117.493 73.6787 116.865 73.6988 116.812C73.7189 116.763 74.9106 117.312 76.3633 118.042C77.8127 118.773 78.9742 119.405 78.9542 119.454Z" fill="#FAFAFA"/>
<path d="M60.1085 136.585C60.0617 136.593 59.8675 135.514 59.6801 134.174C59.4893 132.833 59.3755 131.739 59.4223 131.732C59.4692 131.724 59.6633 132.803 59.8508 134.143C60.0382 135.483 60.1554 136.578 60.1085 136.585Z" fill="#FAFAFA"/>
<path d="M45.822 135.514C45.7852 135.552 44.9149 134.495 43.8805 133.163C42.8429 131.826 42.0328 130.717 42.0696 130.679C42.1064 130.645 42.9768 131.698 44.0111 133.03C45.0454 134.367 45.8588 135.48 45.822 135.514Z" fill="#FAFAFA"/>
<path d="M57.2097 111.875C57.2298 111.924 56.2892 112.507 55.1076 113.174C53.9259 113.844 52.9485 114.343 52.9284 114.298C52.9083 114.249 53.8489 113.67 55.0306 112.999C56.2122 112.329 57.1896 111.83 57.2097 111.875Z" fill="#FAFAFA"/>
<path d="M73.4779 108.782C73.4779 108.835 72.3264 108.88 70.9071 108.88C69.4879 108.88 68.3364 108.835 68.3364 108.782C68.3364 108.729 69.4879 108.684 70.9071 108.684C72.3298 108.684 73.4779 108.729 73.4779 108.782Z" fill="#FAFAFA"/>
<path d="M80.0052 96.02C80.0487 96.0351 79.7876 97.0459 79.3023 98.2196C78.8169 99.3932 78.3014 100.268 78.2612 100.241C78.2177 100.211 78.6663 99.2985 79.1449 98.1363C79.6236 96.974 79.955 96.0011 80.0052 96.02Z" fill="#FAFAFA"/>
<path d="M90.9745 66.3581C91.5737 65.9303 91.9184 65.0974 91.7946 64.2115C91.6272 63.053 90.7134 62.2542 89.7527 62.4321C88.792 62.6063 88.1493 63.689 88.3133 64.8475C88.4405 65.741 89.0129 66.4111 89.7092 66.5966C87.1016 67.5544 87.7075 70.8215 87.7075 70.8215L94.0373 69.6631C94.0407 69.6631 93.6959 66.3126 90.9745 66.3581Z" fill="#263238"/>
<path d="M51.5962 44.9832C52.0113 45.3505 52.0849 46.0243 51.7636 46.4938C51.4389 46.9632 50.8431 47.0465 50.428 46.6831C50.0129 46.3158 49.9393 45.642 50.2606 45.1725C50.582 44.6993 51.1812 44.616 51.5962 44.9832Z" fill="#263238"/>
<path d="M51.7301 41.2769C52.1452 41.6441 52.2188 42.318 51.8975 42.7875C51.5728 43.2569 50.977 43.3402 50.5619 42.9768C50.1468 42.6095 50.0732 41.9357 50.3945 41.4662C50.7192 40.9968 51.3151 40.9135 51.7301 41.2769Z" fill="#263238"/>
<path d="M54.9168 44.0822C55.3687 44.4797 55.4725 45.1839 55.1478 45.6533C54.8231 46.1228 54.1972 46.1796 53.7453 45.782C53.2934 45.3845 53.1896 44.6804 53.5143 44.2109C53.8356 43.7415 54.4649 43.6847 54.9168 44.0822Z" fill="#263238"/>
<path d="M54.0599 45.0968C54.0833 45.1763 53.4071 45.4905 52.5569 45.7972C51.7033 46.1076 50.9937 46.2931 50.9736 46.2174C50.9502 46.1379 51.623 45.8237 52.4766 45.517C53.3302 45.2066 54.0398 45.0173 54.0599 45.0968Z" fill="#263238"/>
<path d="M50.9702 42.2574C51.0439 42.2574 51.0974 43.0108 51.0941 43.9346C51.0907 44.8621 51.0305 45.6117 50.9568 45.6117C50.8832 45.6117 50.8296 44.8583 50.833 43.9346C50.8363 43.0108 50.8999 42.2574 50.9702 42.2574Z" fill="#263238"/>
<path d="M44.4964 64.0525L44.8981 63.3748C45.0922 63.0454 45.3332 63.1136 45.4705 63.2158C45.6077 63.318 46.314 63.8518 46.314 63.8518L47.1709 62.3981L46.0161 61.516C44.7274 60.5468 43.7968 61.41 43.3884 62.1028L42.9365 62.8713L42.1934 62.311L41.1926 64.0108L41.9424 64.5787C40.8076 66.5019 39.4419 68.8226 39.4419 68.8226L40.9415 69.9546C40.9415 69.9546 42.324 67.6111 43.442 65.7107L44.5567 66.5511L45.6948 64.9573L44.4964 64.0525Z" fill="#2F80ED"/>
<path fill-rule="evenodd" clip-rule="evenodd" d="M81.3007 41.9318C79.9115 43.5181 80.1793 45.411 80.9927 46.3234C81.1434 46.4938 81.3074 46.6376 81.4781 46.7436C81.8664 46.9897 82.2915 47.0616 82.6898 46.8648C82.7869 46.8231 82.817 46.7171 82.7635 46.6225C82.7267 46.5468 82.6329 46.3726 82.5961 46.2931C82.5459 46.1871 82.5124 46.1682 82.3953 46.1606C82.2413 46.1455 82.0873 46.1076 81.9367 46.0092C81.8363 45.9448 81.7358 45.8653 81.6354 45.7517C80.9124 44.9416 80.8187 43.5787 81.7091 42.5641C82.4957 41.6668 83.3961 41.6971 84.0254 42.4013C84.2129 42.6095 84.3702 42.8291 84.5007 43.0562C84.9526 43.8437 85.0497 44.6766 84.6179 45.1687C84.3133 45.517 83.8313 45.5094 83.6003 45.0779C83.4731 44.8393 83.356 44.5668 83.2354 44.3131C83.1116 44.0443 82.9844 43.7945 82.8472 43.643C82.6095 43.378 82.2882 43.3061 82.017 43.6165C81.7024 43.9762 81.7693 44.6198 82.1911 45.093C82.2681 45.1801 82.3517 45.2558 82.422 45.3088C82.6028 45.4451 82.74 45.4943 82.74 45.4943C82.74 45.4943 83.7476 47.3493 83.925 47.6711C84.2765 48.3223 84.9392 48.8448 85.0062 48.8978C85.0397 48.9318 85.0966 48.8864 85.0932 48.8372C85.0865 48.7615 85.0095 47.8339 84.6882 47.1828C84.5911 47.0011 84.1058 46.0622 84.1058 46.0622C84.397 46.1644 84.8623 46.013 85.1803 45.6495C85.9435 44.7788 85.9535 43.4992 85.3242 42.3748C85.1836 42.1211 85.0028 41.8713 84.7987 41.6403C83.9484 40.6901 82.422 40.6484 81.3007 41.9318Z" fill="#2F80ED"/>
<path fill-rule="evenodd" clip-rule="evenodd" d="M105.479 24.5359C105.201 24.6722 104.9 24.7669 104.582 24.8123C104.91 24.5927 105.157 24.2558 105.274 23.8431C104.973 24.0438 104.632 24.1914 104.277 24.2709C103.996 23.9302 103.584 23.7182 103.129 23.7182C102.269 23.7182 101.562 24.5019 101.562 25.4597C101.562 25.5998 101.582 25.7323 101.609 25.8572C100.304 25.7853 99.1488 25.0925 98.3789 24.0362C98.245 24.2974 98.1647 24.5927 98.1647 24.9107C98.1647 25.5203 98.4459 26.0541 98.8609 26.3607C98.6032 26.3569 98.3655 26.2774 98.1546 26.1449C98.1546 26.1525 98.1546 26.1601 98.1546 26.1676C98.1546 26.391 98.1915 26.5992 98.2617 26.7961C98.4525 27.345 98.8877 27.7577 99.4132 27.875C99.276 27.9167 99.1455 27.9394 98.9982 27.9394C98.8977 27.9394 98.8007 27.9243 98.7036 27.9015C98.9078 28.5943 99.4835 29.1016 100.166 29.1206C99.6275 29.59 98.958 29.8664 98.2249 29.8664C98.0977 29.8664 97.9772 29.855 97.8467 29.8437C98.5429 30.3358 99.3664 30.6273 100.247 30.6273C102.694 30.6273 104.207 28.7117 104.598 26.7204C104.669 26.3645 104.702 26.0124 104.702 25.6679C104.702 25.5922 104.702 25.5127 104.702 25.4445C105 25.1909 105.271 24.8804 105.479 24.5359Z" fill="#2F80ED"/>
<path fill-rule="evenodd" clip-rule="evenodd" d="M112.809 53.4105H113.921C114.168 53.4105 114.593 53.5354 114.593 54.0655C114.593 54.3456 114.399 54.675 114.152 54.675H112.806V53.4105H112.809ZM116.388 50.8816H118.393V51.635H116.388V50.8816ZM118.125 53.4105H116.655C116.702 52.9638 117 52.6609 117.395 52.6609C117.783 52.6609 118.068 52.9676 118.125 53.4105ZM116.605 53.9102H119.066C119.066 53.8724 119.066 53.8232 119.066 53.7853C119.066 52.7404 118.399 51.8886 117.392 51.8886C116.378 51.8886 115.715 52.7404 115.715 53.7853C115.715 54.8378 116.378 55.682 117.392 55.682C118.396 55.682 118.881 55.0308 119.032 54.1601H118.125C118.045 54.6068 117.814 54.9211 117.395 54.9211C116.967 54.9248 116.645 54.4781 116.605 53.9102ZM115.494 54.1639C115.494 53.6187 115.169 53.1455 114.734 52.9751C115.049 52.748 115.266 52.3505 115.266 51.8924C115.266 51.1996 114.764 50.6317 114.155 50.6317H111.912V55.6858H114.155C114.885 55.6858 115.494 55.0081 115.494 54.1639ZM113.921 52.6609H112.809V51.6387H113.921C114.168 51.6387 114.373 51.8697 114.373 52.1536C114.373 52.43 114.168 52.6609 113.921 52.6609Z" fill="#2F80ED"/>
<path d="M133.45 130.438H108.981V134.239H133.45V130.438Z" fill="#263238"/>
<path d="M133.489 134.287H108.936V130.392H133.489V134.287ZM109.02 134.193H133.406V130.486H109.02V134.193Z" fill="#263238"/>
<path d="M111.249 132.974L114.771 152.626H127.802L131.206 134.238L111.249 132.974Z" fill="#263238"/>
<path d="M111.249 150.767L113.127 153.686H128.967L131.206 150.767H111.249Z" fill="#455A64"/>
<path d="M120.294 133.549C120.247 133.549 120.183 124.444 120.157 113.219C120.13 101.986 120.147 92.8853 120.194 92.8853C120.24 92.8853 120.304 101.986 120.331 113.219C120.358 124.444 120.344 133.549 120.294 133.549Z" fill="#263238"/>
<path d="M125.743 110.766C125.75 110.77 125.727 110.842 125.677 110.978C125.62 111.133 125.546 111.326 125.459 111.568C125.409 111.697 125.359 111.841 125.298 111.992C125.248 112.151 125.195 112.326 125.134 112.507C125.074 112.693 125.014 112.89 124.947 113.102C124.88 113.314 124.83 113.541 124.766 113.779C124.498 114.722 124.287 115.88 124.083 117.168C123.906 118.462 123.772 119.893 123.705 121.404C123.584 124.429 123.738 127.17 123.899 129.142C123.979 130.13 124.056 130.929 124.117 131.478C124.143 131.736 124.164 131.948 124.177 132.114C124.19 132.258 124.194 132.338 124.187 132.338C124.18 132.338 124.167 132.262 124.143 132.118C124.12 131.951 124.087 131.743 124.05 131.486C123.969 130.937 123.872 130.142 123.779 129.15C123.584 127.174 123.414 124.425 123.534 121.385C123.601 119.867 123.742 118.428 123.929 117.126C124.143 115.831 124.371 114.673 124.656 113.726C124.723 113.488 124.779 113.261 124.85 113.052C124.92 112.844 124.987 112.647 125.051 112.462C125.114 112.28 125.174 112.106 125.228 111.947C125.288 111.792 125.348 111.652 125.402 111.527C125.502 111.292 125.586 111.103 125.65 110.951C125.707 110.83 125.74 110.762 125.743 110.766Z" fill="#263238"/>
<path d="M125.121 103.402C125.128 103.406 125.101 103.508 125.044 103.701C124.98 103.913 124.897 104.194 124.79 104.549C124.733 104.735 124.669 104.939 124.602 105.159C124.542 105.386 124.475 105.632 124.405 105.893C124.261 106.42 124.097 107.018 123.949 107.692C123.872 108.029 123.789 108.377 123.705 108.744C123.631 109.115 123.554 109.498 123.477 109.895C123.307 110.686 123.183 111.549 123.025 112.447C122.754 114.256 122.517 116.255 122.356 118.364C122.202 120.473 122.135 122.491 122.112 124.323C122.108 126.159 122.128 127.81 122.195 129.195C122.215 129.888 122.256 130.517 122.289 131.065C122.316 131.614 122.349 132.091 122.379 132.478C122.403 132.852 122.423 133.148 122.44 133.371C122.453 133.575 122.456 133.681 122.45 133.685C122.443 133.685 122.43 133.579 122.406 133.379C122.383 133.159 122.353 132.86 122.312 132.489C122.272 132.103 122.229 131.63 122.192 131.081C122.152 130.532 122.102 129.903 122.075 129.21C121.991 127.825 121.958 126.167 121.954 124.33C121.968 122.491 122.031 120.469 122.185 118.353C122.349 116.24 122.594 114.234 122.871 112.42C123.035 111.519 123.163 110.656 123.34 109.865C123.424 109.467 123.504 109.081 123.581 108.714C123.671 108.347 123.755 107.998 123.839 107.661C123.993 106.988 124.17 106.389 124.321 105.867C124.398 105.606 124.468 105.36 124.532 105.136C124.605 104.917 124.672 104.716 124.733 104.531C124.853 104.182 124.947 103.902 125.017 103.694C125.077 103.497 125.114 103.399 125.121 103.402Z" fill="#263238"/>
<path d="M118.748 135.158C118.744 135.158 118.741 135.124 118.734 135.052C118.727 134.969 118.721 134.866 118.711 134.738C118.694 134.446 118.671 134.045 118.64 133.534C118.58 132.47 118.496 130.96 118.396 129.101C118.185 125.356 117.877 120.185 117.318 114.499C117.034 111.656 116.702 108.952 116.361 106.507C116.18 105.284 116.013 104.122 115.825 103.039C115.655 101.952 115.467 100.949 115.296 100.033C115.136 99.1131 114.955 98.2878 114.811 97.5647C114.67 96.8378 114.533 96.2131 114.416 95.7058C114.309 95.2061 114.222 94.8162 114.162 94.5322C114.135 94.4073 114.115 94.3051 114.101 94.2256C114.088 94.1574 114.085 94.1196 114.085 94.1196C114.088 94.1196 114.098 94.1536 114.118 94.2218C114.138 94.3013 114.165 94.3997 114.195 94.5246C114.265 94.8048 114.359 95.1947 114.48 95.6907C114.603 96.198 114.751 96.8151 114.901 97.542C115.055 98.2688 115.243 99.0904 115.41 100.007C115.588 100.923 115.782 101.93 115.959 103.012C116.153 104.095 116.324 105.257 116.511 106.48C116.863 108.93 117.198 111.633 117.486 114.48C118.045 120.174 118.332 125.349 118.513 129.097C118.604 130.971 118.667 132.489 118.704 133.534C118.721 134.049 118.734 134.45 118.744 134.742C118.748 134.87 118.748 134.972 118.751 135.056C118.751 135.12 118.751 135.158 118.748 135.158Z" fill="#263238"/>
<path d="M120.097 97.258C119.989 95.967 118.838 94.9941 117.693 94.9827C116.548 94.9676 115.48 95.7475 114.781 96.7696C114.081 97.7956 113.693 99.0449 113.378 100.29C112.608 103.33 112.187 106.522 112.515 109.66C112.846 112.799 113.971 115.892 115.963 118.107C116.287 118.466 116.706 118.83 117.151 118.72C117.395 118.663 117.593 118.47 117.777 118.281C121.69 114.283 123.949 108.297 123.795 102.335C123.765 101.142 123.625 99.9005 123.042 98.9049C122.453 97.9167 121.091 96.8605 120.097 97.258Z" fill="#2F80ED"/>
<path d="M111.544 86.9264C111.005 88.0281 110.469 89.1298 109.931 90.2315C109.894 90.3072 109.844 90.3943 109.767 90.4018C109.683 90.4094 109.619 90.3186 109.572 90.2391C108.15 87.7707 106.73 85.3023 105.308 82.8377L106.292 82.2093L111.544 86.9264Z" fill="#2F80ED"/>
<g opacity="0.2">
<g opacity="0.2">
<path opacity="0.2" d="M111.544 86.9264C111.005 88.0281 110.469 89.1298 109.931 90.2315C109.894 90.3072 109.844 90.3943 109.767 90.4018C109.683 90.4094 109.619 90.3186 109.572 90.2391C108.15 87.7707 106.73 85.3023 105.308 82.8377L106.292 82.2093L111.544 86.9264Z" fill="black"/>
</g>
</g>
<path d="M120.194 92.8816C115.343 89.6447 110.496 86.4078 105.646 83.1747C105.499 83.0763 105.338 82.9589 105.291 82.7696C105.234 82.5273 105.395 82.2926 105.549 82.1109C107.551 79.775 110.456 78.4235 113.321 78.6582C116.19 78.8929 118.945 80.7631 120.351 83.6025C121.757 86.4343 121.804 90.1898 120.194 92.8816Z" fill="#2F80ED"/>
<path d="M107.741 80.0741C107.741 80.0665 107.805 80.059 107.932 80.0476C108.056 80.04 108.243 80.0135 108.481 80.0173C108.96 80.006 109.653 80.04 110.5 80.199C111.343 80.3543 112.337 80.6647 113.375 81.1871C114.413 81.7058 115.484 82.463 116.461 83.4511C117.429 84.4505 118.202 85.5825 118.761 86.6993C119.323 87.8161 119.695 88.8989 119.916 89.8378C120.14 90.7729 120.24 91.5527 120.277 92.0903C120.304 92.3591 120.301 92.5711 120.307 92.7112C120.311 92.8551 120.307 92.927 120.304 92.927C120.287 92.927 120.271 92.6317 120.214 92.0979C120.157 91.5641 120.04 90.7956 119.802 89.8756C119.343 88.0433 118.276 85.5711 116.347 83.5987C114.419 81.6301 112.14 80.6723 110.483 80.3391C109.649 80.165 108.96 80.1082 108.485 80.0968C108.006 80.0817 107.745 80.093 107.741 80.0741Z" fill="#263238"/>
<path d="M118.225 86.1807C118.232 86.2072 117.954 86.351 117.489 86.5593C117.027 86.7675 116.378 87.0287 115.655 87.2899C114.928 87.5511 114.265 87.7556 113.783 87.8919C113.298 88.0244 112.997 88.0887 112.99 88.0622C112.983 88.0357 113.275 87.9259 113.75 87.7556C114.286 87.5663 114.911 87.3467 115.604 87.1006C116.294 86.8508 116.917 86.6198 117.452 86.4267C117.921 86.2564 118.215 86.1542 118.225 86.1807Z" fill="#263238"/>
<path d="M115.932 79.2223C115.979 79.2185 116.083 80.0362 116.103 81.0584C116.127 82.0768 116.06 82.9021 116.013 82.9021C115.963 82.8983 115.952 82.0768 115.929 81.066C115.909 80.0476 115.886 79.2261 115.932 79.2223Z" fill="#263238"/>
<path d="M105.519 82.9892C105.512 82.9627 105.914 82.7999 106.577 82.569C107.236 82.338 108.156 82.0465 109.184 81.7664C110.212 81.4862 111.149 81.2742 111.829 81.1379C112.511 81.0017 112.933 80.9411 112.94 80.9676C112.943 80.9941 112.528 81.1039 111.855 81.2742C111.182 81.4446 110.252 81.6793 109.228 81.9595C108.203 82.2396 107.283 82.5084 106.613 82.7053C105.941 82.8983 105.525 83.0157 105.519 82.9892Z" fill="#263238"/>
<path d="M113.485 94.2066C112.234 93.1352 110.911 92.9232 109.341 92.9914C107.772 93.0633 106.245 93.6009 104.806 94.3164C102.352 95.5317 100.046 97.3224 98.5797 99.8589C97.1135 102.395 96.6047 105.75 97.7027 108.513C97.8131 108.79 97.9537 109.077 98.1981 109.195C98.4558 109.32 98.7504 109.221 99.0182 109.123C101.807 108.093 104.618 107.056 107.182 105.443C109.746 103.83 112.083 101.589 113.459 98.6588C113.79 97.9546 114.065 97.2012 114.118 96.4062C114.178 95.6112 113.984 94.7669 113.485 94.2066Z" fill="#2F80ED"/>
<path d="M113.509 93.8735C113.509 93.881 113.442 93.9113 113.308 93.9643C113.157 94.0249 112.963 94.0968 112.722 94.1915C112.592 94.2407 112.451 94.2937 112.301 94.3505C112.147 94.4111 111.983 94.4906 111.805 94.5701C111.454 94.7329 111.042 94.8919 110.61 95.1304C110.393 95.2439 110.165 95.3613 109.927 95.4824C109.69 95.6074 109.452 95.7588 109.201 95.9027C108.695 96.1828 108.183 96.5425 107.638 96.9059C106.566 97.6707 105.435 98.5906 104.334 99.6771C103.243 100.775 102.289 101.93 101.482 103.031C101.094 103.595 100.712 104.125 100.404 104.656C100.247 104.917 100.083 105.163 99.9421 105.416C99.8048 105.666 99.671 105.909 99.5471 106.14C99.286 106.594 99.0919 107.033 98.9044 107.408C98.814 107.597 98.7236 107.771 98.65 107.934C98.5797 108.097 98.5161 108.248 98.4559 108.388C98.342 108.646 98.2517 108.854 98.1814 109.017C98.1178 109.161 98.0809 109.233 98.0743 109.229C98.0676 109.225 98.0943 109.146 98.1479 108.998C98.2115 108.831 98.2918 108.619 98.3923 108.354C98.4458 108.214 98.5061 108.059 98.573 107.892C98.6433 107.726 98.727 107.548 98.814 107.355C98.9948 106.972 99.1789 106.526 99.4366 106.068C99.5605 105.833 99.691 105.591 99.8249 105.333C99.9622 105.08 100.123 104.83 100.28 104.565C100.588 104.027 100.966 103.489 101.355 102.918C102.161 101.801 103.115 100.635 104.217 99.5295C105.325 98.4354 106.469 97.5116 107.551 96.7507C108.103 96.3873 108.618 96.0314 109.131 95.755C109.385 95.6112 109.623 95.4635 109.864 95.3424C110.105 95.225 110.336 95.1076 110.557 94.9979C110.995 94.7669 111.41 94.6155 111.765 94.4641C111.946 94.3921 112.11 94.3164 112.267 94.2596C112.421 94.2066 112.565 94.1612 112.696 94.1158C112.94 94.0363 113.137 93.9719 113.291 93.9227C113.435 93.8848 113.509 93.8659 113.509 93.8735Z" fill="#263238"/>
<path d="M103.735 99.8588C103.748 99.9118 102.386 100.408 100.692 100.968C98.9982 101.528 97.6124 101.941 97.599 101.888C97.5856 101.835 98.948 101.339 100.642 100.779C102.339 100.218 103.721 99.8058 103.735 99.8588Z" fill="#263238"/>
<path d="M103.611 107.453C103.587 107.453 103.561 107.044 103.544 106.382C103.527 105.719 103.524 104.803 103.551 103.792C103.577 102.782 103.624 101.865 103.671 101.203C103.721 100.54 103.768 100.135 103.792 100.135C103.815 100.139 103.812 100.548 103.795 101.21C103.775 101.937 103.751 102.819 103.725 103.796C103.704 104.773 103.684 105.655 103.668 106.382C103.651 107.044 103.634 107.453 103.611 107.453Z" fill="#263238"/>
<path d="M109.365 104.141C109.318 104.144 109.164 102.282 109.023 99.98C108.883 97.6782 108.809 95.8118 108.856 95.8081C108.903 95.8043 109.057 97.6669 109.197 99.9687C109.338 102.267 109.412 104.137 109.365 104.141Z" fill="#263238"/>
<path d="M102.202 95.6263C102.202 95.5998 102.576 95.5884 103.176 95.5922C103.778 95.596 104.608 95.6187 105.525 95.6528C106.443 95.6869 107.273 95.7285 107.872 95.7702C108.471 95.8118 108.843 95.8497 108.843 95.8762C108.843 95.9027 108.471 95.914 107.869 95.9102C107.266 95.9065 106.436 95.8837 105.519 95.8497C104.602 95.8156 103.771 95.774 103.172 95.7323C102.573 95.6907 102.202 95.6528 102.202 95.6263Z" fill="#263238"/>
<path d="M116.585 118.996C116.578 118.996 116.572 118.921 116.565 118.773C116.558 118.602 116.548 118.39 116.538 118.125C116.515 117.565 116.511 116.751 116.532 115.744C116.548 114.741 116.605 113.545 116.712 112.22C116.826 110.898 116.99 109.445 117.224 107.934C117.465 106.423 117.753 104.996 118.051 103.713C118.356 102.429 118.667 101.282 118.958 100.336C119.246 99.3856 119.501 98.6247 119.691 98.106C119.782 97.8637 119.856 97.6668 119.912 97.5078C119.966 97.3716 119.996 97.3034 119.999 97.3034C120.006 97.3072 119.986 97.3791 119.943 97.5192C119.892 97.6782 119.829 97.8789 119.752 98.1287C119.581 98.655 119.343 99.4235 119.072 100.374C118.794 101.328 118.5 102.471 118.202 103.754C117.914 105.038 117.63 106.461 117.392 107.964C117.158 109.471 116.99 110.913 116.87 112.231C116.756 113.548 116.686 114.741 116.652 115.744C116.619 116.747 116.605 117.558 116.605 118.118C116.602 118.383 116.599 118.595 116.599 118.765C116.595 118.917 116.588 118.996 116.585 118.996Z" fill="#263238"/>
<path d="M117.352 107.771C117.368 107.79 117.148 108.067 116.773 108.491C116.398 108.915 115.862 109.486 115.253 110.088C114.644 110.694 114.075 111.216 113.653 111.584C113.231 111.951 112.96 112.159 112.947 112.14C112.93 112.117 113.174 111.868 113.576 111.478C114.024 111.038 114.553 110.516 115.139 109.941C115.722 109.358 116.247 108.831 116.689 108.388C117.084 107.991 117.335 107.749 117.352 107.771Z" fill="#263238"/>
<path d="M121.954 111.966C121.934 111.981 121.703 111.606 121.335 110.997C120.937 110.342 120.445 109.524 119.899 108.623C119.34 107.73 118.838 106.923 118.433 106.272C118.055 105.67 117.827 105.299 117.844 105.28C117.864 105.265 118.128 105.61 118.53 106.189C118.935 106.768 119.474 107.586 120.043 108.509C120.612 109.433 121.101 110.289 121.442 110.917C121.78 111.55 121.974 111.951 121.954 111.966Z" fill="#263238"/>
<path d="M119.544 98.7723C119.571 98.8178 118.041 99.9838 116.13 101.373C114.215 102.763 112.645 103.853 112.619 103.807C112.592 103.762 114.121 102.596 116.036 101.207C117.944 99.8172 119.517 98.7269 119.544 98.7723Z" fill="#263238"/>
<path d="M123.856 104.038C123.822 104.076 122.784 102.994 121.543 101.619C120.297 100.245 119.317 99.0979 119.35 99.06C119.384 99.0222 120.418 100.105 121.663 101.479C122.908 102.853 123.889 103.997 123.856 104.038Z" fill="#263238"/>
<path d="M124.94 103.933L126.252 103.812C127.183 103.725 128.09 103.415 128.903 102.896C129.305 102.638 129.71 102.389 130.139 102.196C131.762 101.457 133.573 101.59 135.32 101.491C138.172 101.329 140.994 100.515 143.565 99.1063C143.712 99.0268 143.846 98.9019 143.923 98.7391C144.194 98.1825 143.692 97.6904 143.26 97.3875C141.048 95.8467 138.795 94.2832 136.288 93.5184C133.781 92.7537 130.932 92.8824 128.79 94.5482C126.282 96.4979 125.365 100.515 124.94 103.933Z" fill="#2F80ED"/>
<path d="M143.957 98.549C143.953 98.5565 143.876 98.5149 143.732 98.4316C143.575 98.337 143.367 98.2158 143.11 98.0644C142.571 97.7426 141.794 97.2694 140.81 96.7356C139.826 96.2093 138.638 95.6149 137.252 95.1834C135.873 94.748 134.279 94.5246 132.639 94.7594C131.006 95.0016 129.499 95.7209 128.435 96.7999C127.364 97.8751 126.708 99.1736 126.246 100.279C125.784 101.392 125.499 102.339 125.292 102.986C125.195 103.296 125.118 103.546 125.057 103.736C125.004 103.906 124.97 103.997 124.967 103.993C124.96 103.989 124.98 103.898 125.024 103.724C125.074 103.531 125.141 103.277 125.228 102.963C125.416 102.308 125.683 101.35 126.132 100.222C126.584 99.1017 127.236 97.7766 128.328 96.6674C129.412 95.5544 130.952 94.8123 132.616 94.5663C134.286 94.324 135.903 94.5625 137.292 95.0092C138.688 95.4522 139.883 96.0655 140.86 96.6106C141.838 97.1596 142.608 97.6555 143.136 97.9962C143.387 98.1628 143.588 98.2953 143.742 98.3975C143.886 98.4922 143.957 98.5414 143.957 98.549Z" fill="#263238"/>
<path d="M140.8 100.465C140.773 100.51 139.056 99.2531 136.964 97.6592C134.872 96.0654 133.198 94.7328 133.225 94.6912C133.252 94.6457 134.969 95.9026 137.061 97.4965C139.156 99.0903 140.83 100.419 140.8 100.465Z" fill="#263238"/>
<path d="M139.153 94.5019C139.163 94.5549 138.567 94.7291 137.814 94.8048C137.061 94.8843 136.445 94.8351 136.448 94.7821C136.448 94.7253 137.054 94.6874 137.801 94.6079C138.54 94.536 139.143 94.4489 139.153 94.5019Z" fill="#263238"/>
<path d="M131.451 92.9421C131.491 92.9686 131.24 93.5403 130.888 94.2179C130.537 94.8956 130.216 95.4181 130.175 95.3916C130.135 95.3651 130.386 94.7934 130.738 94.1157C131.093 93.4419 131.411 92.9156 131.451 92.9421Z" fill="#263238"/>
<path d="M132.991 101.608C132.977 101.631 132.659 101.441 132.164 101.101C131.668 100.76 130.999 100.26 130.283 99.6733C129.566 99.0865 128.934 98.53 128.482 98.1211C128.03 97.7123 127.755 97.4511 127.769 97.4283C127.782 97.4056 128.083 97.629 128.555 98.0076C129.071 98.4316 129.693 98.9427 130.386 99.5106C131.099 100.097 131.755 100.612 132.234 100.979C132.709 101.354 133.004 101.585 132.991 101.608Z" fill="#263238"/>
<path d="M126.875 110.24C125.623 109.865 124.13 111.243 123.872 112.678C123.615 114.113 124.09 115.581 124.649 116.903C125.884 119.829 127.585 122.547 129.827 124.565C132.07 126.587 134.878 127.878 137.747 127.863C137.218 125.08 137.888 122.176 137.593 119.348C137.335 116.884 136.318 114.525 134.758 112.78C133.198 111.035 131.103 109.906 128.92 109.641C128.117 109.547 127.193 109.407 126.875 110.24Z" fill="#2F80ED"/>
<path d="M137.744 127.866C137.74 127.874 137.68 127.84 137.566 127.772C137.453 127.704 137.289 127.59 137.098 127.416C136.706 127.079 136.254 126.428 135.863 125.546C135.662 125.107 135.441 124.63 135.223 124.103C135.012 123.573 134.785 123.009 134.55 122.419C134.313 121.828 134.048 121.215 133.724 120.617C133.399 120.018 133.014 119.432 132.585 118.864C131.729 117.724 130.808 116.74 130.011 115.797C129.211 114.858 128.535 113.957 128.046 113.132C127.554 112.31 127.256 111.576 127.086 111.061C127.005 110.8 126.949 110.596 126.918 110.455C126.888 110.315 126.872 110.24 126.878 110.24C126.895 110.236 126.965 110.527 127.149 111.038C127.337 111.542 127.648 112.257 128.147 113.06C128.642 113.863 129.318 114.749 130.125 115.676C130.925 116.607 131.852 117.592 132.719 118.743C133.151 119.318 133.543 119.912 133.871 120.522C134.202 121.131 134.463 121.752 134.701 122.347C134.932 122.941 135.153 123.505 135.36 124.039C135.571 124.565 135.789 125.046 135.98 125.485C136.358 126.371 136.776 127.011 137.151 127.359C137.506 127.715 137.754 127.848 137.744 127.866Z" fill="#263238"/>
<path d="M131.267 125.557C131.243 125.553 131.283 125.186 131.38 124.603C131.477 124.02 131.638 123.217 131.856 122.347C132.073 121.476 132.304 120.696 132.492 120.14C132.676 119.583 132.813 119.25 132.833 119.257C132.857 119.269 132.763 119.617 132.609 120.185C132.455 120.749 132.241 121.533 132.023 122.4C131.806 123.267 131.628 124.058 131.501 124.633C131.374 125.205 131.293 125.561 131.267 125.557Z" fill="#263238"/>
<path d="M137.506 118.727C137.499 118.754 137.165 118.659 136.622 118.497C136.083 118.338 135.337 118.118 134.51 117.906C133.68 117.694 132.924 117.531 132.378 117.414C131.829 117.296 131.491 117.221 131.494 117.194C131.498 117.168 131.842 117.194 132.398 117.277C132.954 117.361 133.717 117.505 134.55 117.717C135.384 117.929 136.127 118.171 136.659 118.364C137.191 118.561 137.513 118.705 137.506 118.727Z" fill="#263238"/>
<path d="M126.62 120.711C126.597 120.707 126.647 120.283 126.754 119.61C126.865 118.932 127.039 118.004 127.273 116.99C127.508 115.975 127.755 115.067 127.953 114.415C128.15 113.764 128.291 113.371 128.311 113.378C128.334 113.386 128.237 113.798 128.07 114.457C127.906 115.116 127.675 116.028 127.441 117.039C127.206 118.05 127.012 118.974 126.872 119.64C126.734 120.306 126.644 120.719 126.62 120.711Z" fill="#263238"/>
<path d="M134.634 112.78C134.627 112.833 133.064 112.689 131.143 112.462C129.218 112.231 127.665 112 127.668 111.947C127.675 111.894 129.235 112.034 131.159 112.265C133.084 112.496 134.637 112.727 134.634 112.78Z" fill="#263238"/>
<path d="M133.489 134.223C133.489 134.276 127.993 134.321 121.215 134.321C114.433 134.321 108.94 134.276 108.94 134.223C108.94 134.17 114.436 134.124 121.215 134.124C127.993 134.124 133.489 134.17 133.489 134.223Z" fill="#455A64"/>
<path d="M129.663 142.222C129.663 142.275 125.961 142.321 121.392 142.321C116.823 142.321 113.121 142.275 113.121 142.222C113.121 142.169 116.823 142.124 121.392 142.124C125.961 142.124 129.663 142.169 129.663 142.222Z" fill="#455A64"/>
<path d="M129.807 143.366C129.807 143.419 126.105 143.464 121.536 143.464C116.967 143.464 113.265 143.419 113.265 143.366C113.265 143.313 116.967 143.267 121.536 143.267C126.105 143.267 129.807 143.313 129.807 143.366Z" fill="#455A64"/>
<path d="M129.807 141.28C129.807 141.333 125.978 141.378 121.255 141.378C116.528 141.378 112.699 141.333 112.699 141.28C112.699 141.227 116.528 141.181 121.255 141.181C125.978 141.181 129.807 141.227 129.807 141.28Z" fill="#455A64"/>
</g>
<defs>
<clipPath id="clip0">
<rect width="144" height="154" fill="white"/>
</clipPath>
</defs>
</svg>
